<svg width="1440" height="459" viewBox="0 0 1440 459" fill="none" xmlns="http://www.w3.org/2000/svg">
<path opacity="0.5" d="M106.712 313.361L110.413 312.024C109.995 312.143 109.58 312.256 109.161 312.374C107.785 312.84 106.408 313.307 105.027 313.781C105.589 313.639 106.15 313.502 106.712 313.361ZM130.208 305.827C131.162 305.469 132.123 305.105 133.074 304.751L132.682 304.868L129.076 306.132L130.208 305.827ZM116.914 310.818C119.012 310.024 121.087 309.256 123.182 308.465C122.086 308.766 120.981 309.081 119.881 309.385C117.827 310.118 115.749 310.877 113.681 311.624C114.758 311.357 115.839 311.083 116.914 310.818ZM154.094 297.851C154.89 297.546 155.668 297.259 156.461 296.956L156.441 296.962C155.527 297.293 154.601 297.635 153.684 297.968L154.094 297.851ZM140.965 302.935C142.839 302.207 144.722 301.471 146.59 300.75C145.729 301.001 144.871 301.246 144.01 301.499C141.883 302.28 139.786 303.031 137.651 303.822C138.754 303.528 139.863 303.226 140.965 302.935ZM127.011 308.376C129.646 307.336 132.25 306.328 134.873 305.303C133.501 305.67 132.129 306.04 130.754 306.412C128.13 307.391 125.493 308.386 122.863 309.374C124.247 309.039 125.629 308.708 127.011 308.376ZM1220.78 236.764L1219.82 236.693C1219.09 236.758 1218.37 236.82 1217.65 236.884L1218.54 236.923C1219.29 236.871 1220.04 236.817 1220.78 236.764ZM179.046 289.261L179.87 288.94C179.495 289.079 179.126 289.211 178.751 289.35L179.046 289.261ZM165.116 294.717C166.853 294.025 168.572 293.35 170.297 292.671C169.613 292.88 168.934 293.083 168.249 293.293C166.413 293.984 164.564 294.688 162.728 295.38C163.527 295.155 164.317 294.94 165.116 294.717ZM151.304 300.246C153.819 299.24 156.338 298.227 158.846 297.227C157.447 297.625 156.038 298.035 154.636 298.437C152.162 299.384 149.666 300.352 147.168 301.322C148.548 300.962 149.928 300.603 151.304 300.246ZM137.147 305.972C140.152 304.741 143.142 303.525 146.116 302.324C144.577 302.726 143.044 303.116 141.502 303.523C138.42 304.724 135.352 305.908 132.266 307.112C133.895 306.725 135.52 306.353 137.147 305.972ZM1229.06 236.174C1228.49 236.115 1227.93 236.051 1227.37 235.991L1224.18 236.288C1224.73 236.327 1225.27 236.37 1225.82 236.408C1226.9 236.33 1227.98 236.253 1229.06 236.174ZM1234.04 236.68L1232.93 236.57L1230.76 236.735L1231.72 236.799C1232.49 236.759 1233.26 236.722 1234.04 236.68ZM1238.65 237.135L1238.49 237.121L1237.81 237.159L1238.65 237.135ZM190.075 285.989C191.701 285.34 193.338 284.682 194.969 284.028L192.526 284.806C190.939 285.417 189.324 286.055 187.722 286.678C188.508 286.446 189.29 286.22 190.075 285.989ZM176.014 291.692C178.387 290.713 180.765 289.73 183.106 288.781C181.944 289.126 180.767 289.493 179.604 289.843C177.068 290.833 174.546 291.811 172.008 292.803C173.341 292.435 174.683 292.057 176.014 291.692ZM161.613 297.615L170.493 293.962C168.883 294.41 167.278 294.85 165.664 295.302C162.798 296.437 159.896 297.608 157.003 298.77C158.545 298.378 160.075 298.003 161.613 297.615ZM147.188 303.641C150.505 302.237 153.828 300.829 157.097 299.472C155.355 299.915 153.602 300.38 151.857 300.831C148.463 302.198 145.1 303.535 141.69 304.917C143.522 304.493 145.359 304.059 147.188 303.641ZM1237.1 235.561C1236.39 235.463 1235.67 235.367 1234.96 235.266C1233.67 235.392 1232.37 235.52 1231.08 235.644C1231.79 235.717 1232.5 235.785 1233.21 235.858C1234.51 235.759 1235.8 235.662 1237.1 235.561ZM1241.95 236.231C1241.4 236.157 1240.84 236.079 1240.29 236.004C1239.23 236.087 1238.18 236.169 1237.12 236.25L1238.79 236.411C1239.85 236.351 1240.9 236.293 1241.95 236.231ZM1246.73 236.851L1245.63 236.708C1244.9 236.752 1244.17 236.798 1243.44 236.84C1243.77 236.87 1244.1 236.902 1244.43 236.932C1245.2 236.903 1245.96 236.879 1246.73 236.851ZM1251.22 237.411L1250.97 237.381L1250.1 237.417L1250.17 237.422L1251.22 237.411ZM215.417 276.885C216.872 276.288 218.337 275.681 219.781 275.094C219.305 275.25 218.824 275.412 218.349 275.57C216.662 276.23 214.99 276.876 213.3 277.538L215.417 276.885ZM201.18 282.733C203.487 281.781 205.777 280.847 208.082 279.898C206.935 280.254 205.801 280.595 204.652 280.954C202.315 281.882 199.948 282.838 197.594 283.782C198.786 283.437 199.99 283.076 201.18 282.733ZM186.635 288.82C189.45 287.63 192.273 286.432 195.048 285.277C193.577 285.705 192.102 286.139 190.627 286.573C187.702 287.752 184.81 288.9 181.867 290.097C183.461 289.665 185.045 289.246 186.635 288.82ZM171.862 295.044C175.208 293.627 178.522 292.239 181.857 290.833C180.096 291.311 178.334 291.791 176.568 292.276C173.288 293.616 169.981 294.982 166.678 296.343C168.404 295.914 170.138 295.468 171.862 295.044ZM156.983 301.445C160.58 299.886 164.193 298.313 167.735 296.804C165.88 297.266 164.021 297.733 162.163 298.201C158.572 299.688 154.973 301.186 151.349 302.705C153.229 302.281 155.105 301.863 156.983 301.445ZM1244.97 234.93C1244.19 234.792 1243.42 234.65 1242.64 234.509C1241.15 234.659 1239.66 234.804 1238.17 234.951C1238.98 235.063 1239.79 235.176 1240.6 235.287C1242.06 235.169 1243.52 235.049 1244.97 234.93ZM1249.75 235.757C1249.06 235.638 1248.36 235.52 1247.67 235.401C1246.38 235.507 1245.1 235.61 1243.81 235.715C1244.53 235.81 1245.25 235.901 1245.96 235.994C1247.22 235.917 1248.49 235.836 1249.75 235.757ZM1254.43 236.54C1253.86 236.447 1253.29 236.358 1252.72 236.263C1251.67 236.331 1250.62 236.394 1249.58 236.46C1250.16 236.532 1250.74 236.599 1251.32 236.67L1254.43 236.54ZM1258.97 237.272C1258.6 237.214 1258.23 237.152 1257.86 237.093C1257.11 237.127 1256.36 237.155 1255.61 237.188L1256.69 237.314C1257.45 237.3 1258.21 237.288 1258.97 237.272ZM1263.34 237.937L1262.99 237.885C1262.67 237.892 1262.35 237.902 1262.03 237.909L1262.21 237.929C1262.59 237.931 1262.96 237.936 1263.34 237.937ZM240.897 267.503C242.342 266.902 243.737 266.347 245.172 265.754C244.866 265.857 244.568 265.954 244.262 266.058C242.723 266.669 241.166 267.297 239.624 267.912C240.047 267.778 240.475 267.637 240.897 267.503ZM226.756 273.439C228.885 272.544 231.026 271.64 233.143 270.757C232.067 271.103 230.996 271.444 229.919 271.793C227.687 272.692 225.48 273.571 223.231 274.486C224.413 274.129 225.576 273.794 226.756 273.439ZM211.791 279.729C214.699 278.494 217.545 277.313 220.435 276.093C218.954 276.543 217.455 277.014 215.969 277.469C213.167 278.614 210.343 279.779 207.53 280.935C208.952 280.53 210.371 280.129 211.791 279.729ZM197.237 285.995C200.418 284.621 203.607 283.241 206.756 281.898C205.071 282.378 203.404 282.837 201.714 283.324C198.481 284.664 195.225 286.022 191.953 287.397C193.714 286.93 195.48 286.455 197.237 285.995ZM181.884 292.619C185.551 291.023 189.163 289.477 192.802 287.904C190.932 288.399 189.051 288.906 187.176 289.41C183.605 290.91 180.022 292.42 176.434 293.935C178.254 293.492 180.068 293.055 181.884 292.619ZM166.723 299.302C170.582 297.595 174.449 295.881 178.262 294.215C176.308 294.69 174.363 295.151 172.407 295.632C168.624 297.24 164.784 298.899 160.946 300.558C162.874 300.133 164.798 299.72 166.723 299.302ZM1252.82 234.275C1251.97 234.09 1251.13 233.91 1250.29 233.723C1248.67 233.891 1247.05 234.061 1245.43 234.227C1246.29 234.38 1247.16 234.531 1248.03 234.681C1249.62 234.549 1251.22 234.412 1252.82 234.275ZM1257.39 235.262C1256.62 235.1 1255.85 234.933 1255.08 234.768C1253.64 234.894 1252.19 235.024 1250.74 235.147C1251.53 235.279 1252.3 235.417 1253.09 235.547C1254.52 235.456 1255.96 235.359 1257.39 235.262ZM1261.94 236.204C1261.26 236.065 1260.58 235.922 1259.9 235.782C1258.65 235.868 1257.39 235.956 1256.14 236.04C1256.85 236.154 1257.55 236.27 1258.26 236.382C1259.48 236.326 1260.71 236.262 1261.94 236.204ZM1266.45 237.097C1265.88 236.987 1265.31 236.877 1264.75 236.764L1261.66 236.913C1262.24 237.001 1262.82 237.088 1263.4 237.175C1264.41 237.151 1265.43 237.124 1266.45 237.097ZM1270.82 237.938C1270.42 237.862 1270.02 237.792 1269.62 237.716C1268.88 237.737 1268.14 237.753 1267.4 237.772C1267.79 237.829 1268.19 237.883 1268.58 237.938C1269.33 237.938 1270.07 237.94 1270.82 237.938ZM1274.96 238.7L1274.55 238.624C1274.2 238.627 1273.86 238.631 1273.51 238.632L1273.8 238.672L1274.96 238.7ZM267.334 257.618C268.474 257.143 269.621 256.662 270.763 256.185C270.326 256.337 269.893 256.484 269.456 256.636C268.294 257.105 267.114 257.588 265.94 258.067C266.409 257.913 266.866 257.77 267.334 257.618ZM252.419 263.896C254.471 263.017 256.512 262.149 258.539 261.293C257.67 261.581 256.796 261.875 255.926 262.164C253.766 263.047 251.593 263.94 249.436 264.821C250.433 264.509 251.423 264.206 252.419 263.896ZM237.833 270.147C240.564 268.977 243.304 267.798 246.024 266.636C244.512 267.113 242.99 267.597 241.473 268.08C238.818 269.18 236.112 270.324 233.416 271.46C234.887 271.024 236.366 270.579 237.833 270.147ZM222.704 276.678C225.87 275.297 229.003 273.943 232.136 272.589C230.53 273.067 228.932 273.536 227.322 274.019L217.731 278.048C219.394 277.584 221.046 277.135 222.704 276.678ZM207.521 283.345C211.082 281.776 214.646 280.208 218.181 278.663C216.245 279.203 214.289 279.767 212.346 280.315C208.943 281.76 205.469 283.269 202.012 284.764C203.85 284.288 205.688 283.813 207.521 283.345ZM191.983 290.215C195.844 288.493 199.67 286.801 203.491 285.114C201.588 285.606 199.694 286.084 197.785 286.585C193.915 288.251 190.063 289.901 186.176 291.582C188.115 291.12 190.047 290.669 191.983 290.215ZM176.391 297.219C180.497 295.368 184.6 293.522 188.667 291.705C186.596 292.195 184.51 292.709 182.434 293.208C178.479 294.929 174.437 296.727 170.414 298.507C172.407 298.078 174.402 297.64 176.391 297.219ZM1251.83 231.193C1209.38 219.211 1170.53 202.948 1130.95 186.37C985.719 125.545 830.476 60.5867 450.215 188.779M1260.59 233.598C1259.73 233.372 1258.88 233.138 1258.03 232.908C1256.29 233.094 1254.55 233.28 1252.81 233.462C1253.69 233.657 1254.58 233.851 1255.47 234.043C1257.18 233.896 1258.88 233.751 1260.59 233.598ZM1265 234.74C1264.18 234.531 1263.37 234.321 1262.56 234.108C1260.96 234.254 1259.36 234.395 1257.76 234.534C1258.61 234.713 1259.46 234.886 1260.31 235.061C1261.87 234.956 1263.43 234.852 1265 234.74ZM1269.37 235.838C1268.61 235.65 1267.85 235.467 1267.09 235.277C1265.66 235.38 1264.24 235.482 1262.82 235.581C1263.6 235.74 1264.38 235.893 1265.17 236.049C1266.57 235.98 1267.97 235.91 1269.37 235.838ZM1273.7 236.89C1273.02 236.73 1272.35 236.568 1271.68 236.406C1270.46 236.472 1269.24 236.544 1268.02 236.606C1268.7 236.739 1269.38 236.876 1270.06 237.005C1271.27 236.97 1272.48 236.928 1273.7 236.89ZM1277.99 237.893C1277.43 237.765 1276.88 237.632 1276.32 237.502L1273.3 237.601C1273.87 237.706 1274.44 237.813 1275.01 237.916L1277.99 237.893ZM1282.22 238.837L1281.02 238.572C1280.28 238.58 1279.54 238.583 1278.81 238.589L1280 238.796C1280.74 238.809 1281.48 238.826 1282.22 238.837ZM1286.13 239.686L1285.66 239.588L1284.64 239.578L1285.05 239.642C1285.41 239.659 1285.77 239.671 1286.13 239.686ZM293.517 247.646C294.492 247.231 295.479 246.807 296.448 246.397L296.195 246.487C294.986 246.981 293.788 247.464 292.579 247.959L293.517 247.646ZM278.722 253.948C280.825 253.053 282.928 252.159 285.036 251.258C284.035 251.599 283.009 251.961 282.005 252.304C279.983 253.142 277.927 254.008 275.887 254.862C276.832 254.557 277.779 254.25 278.722 253.948ZM264.061 260.284C266.545 259.197 269.041 258.098 271.488 257.042C270.291 257.431 269.111 257.802 267.912 258.194C265.132 259.359 262.387 260.495 259.597 261.669C261.079 261.214 262.583 260.735 264.061 260.284ZM248.697 266.993L258.076 262.898C256.383 263.42 254.684 263.949 252.985 264.478C249.996 265.747 246.961 267.057 243.937 268.356C245.532 267.893 247.106 267.451 248.697 266.993ZM233.39 273.764C236.858 272.214 240.325 270.664 243.744 269.156C241.974 269.67 240.19 270.202 238.413 270.724C234.834 272.263 231.306 273.757 227.705 275.315C229.601 274.797 231.501 274.274 233.39 273.764ZM217.756 280.753C221.566 279.047 225.362 277.35 229.154 275.657C227.192 276.192 225.232 276.721 223.262 277.264C219.58 278.867 215.841 280.518 212.111 282.161C213.999 281.683 215.873 281.224 217.756 280.753ZM201.966 287.895C206.034 286.04 210.09 284.195 214.104 282.385C212.104 282.89 210.089 283.416 208.081 283.93C204.004 285.726 199.96 287.493 195.85 289.316C197.889 288.842 199.931 288.36 201.966 287.895ZM185.873 295.25C190.185 293.273 194.478 291.312 198.764 289.358C196.691 289.836 194.616 290.318 192.537 290.805C188.358 292.665 184.114 294.583 179.878 296.493C181.879 296.072 183.876 295.662 185.873 295.25ZM1268.35 232.88C1267.49 232.608 1266.63 232.339 1265.77 232.063C1263.94 232.267 1262.1 232.465 1260.27 232.663C1261.18 232.903 1262.08 233.142 1262.99 233.378C1264.77 233.213 1266.56 233.047 1268.35 232.88ZM1272.52 234.177C1271.69 233.924 1270.86 233.671 1270.04 233.415C1268.34 233.575 1266.65 233.73 1264.95 233.886C1265.81 234.108 1266.67 234.334 1267.53 234.551C1269.19 234.427 1270.86 234.304 1272.52 234.177ZM1276.69 235.437C1275.9 235.206 1275.13 234.968 1274.35 234.733C1272.79 234.853 1271.24 234.966 1269.69 235.081C1270.51 235.283 1271.32 235.487 1272.15 235.685C1273.66 235.603 1275.17 235.525 1276.69 235.437ZM1280.87 236.648C1280.14 236.44 1279.42 236.229 1278.69 236.016C1277.29 236.1 1275.9 236.176 1274.5 236.252C1275.27 236.433 1276.04 236.61 1276.8 236.789C1278.16 236.744 1279.52 236.699 1280.87 236.648ZM1285.03 237.807C1284.36 237.625 1283.69 237.446 1283.03 237.26C1281.83 237.307 1280.63 237.358 1279.43 237.401C1280.12 237.559 1280.82 237.708 1281.52 237.863C1282.69 237.849 1283.86 237.825 1285.03 237.807ZM1289.12 238.915C1288.56 238.767 1288 238.621 1287.44 238.471C1286.46 238.488 1285.47 238.501 1284.49 238.518C1285.05 238.64 1285.62 238.764 1286.18 238.885C1287.16 238.894 1288.14 238.907 1289.12 238.915ZM1293.12 239.955C1292.72 239.854 1292.33 239.749 1291.93 239.646C1291.21 239.643 1290.5 239.638 1289.78 239.631C1290.18 239.713 1290.58 239.797 1290.97 239.877C1291.69 239.904 1292.4 239.93 1293.12 239.955ZM1296.91 240.896L1296.41 240.773L1295.36 240.742L1295.8 240.827L1296.91 240.896ZM319.69 237.502L319.887 237.418L319.652 237.516L319.69 237.502ZM305.547 243.634C307.371 242.844 309.209 242.042 311.025 241.258C310.255 241.527 309.501 241.779 308.73 242.049C306.607 242.937 304.535 243.783 302.396 244.684C303.442 244.339 304.505 243.977 305.547 243.634ZM290.148 250.311C292.736 249.18 295.269 248.096 297.853 246.97C296.594 247.389 295.34 247.805 294.078 248.229C291.605 249.277 289.104 250.348 286.621 251.406C287.805 251.031 288.966 250.683 290.148 250.311ZM275.059 256.996C278.09 255.646 281.131 254.288 284.124 252.969C282.53 253.477 280.91 254.008 279.311 254.52C276.241 255.839 273.192 257.138 270.093 258.48C271.753 257.979 273.405 257.49 275.059 256.996ZM259.532 263.892C262.992 262.35 266.419 260.836 269.877 259.296C268.123 259.825 266.394 260.328 264.632 260.865C261.18 262.365 257.696 263.891 254.217 265.413C255.985 264.909 257.769 264.388 259.532 263.892ZM243.871 270.977C247.569 269.292 251.282 267.594 254.921 265.956C253.04 266.492 251.156 267.032 249.267 267.575C245.565 269.203 241.868 270.824 238.127 272.483C240.051 271.97 241.955 271.483 243.871 270.977ZM227.886 278.242C231.952 276.389 235.991 274.56 240.05 272.714C238.022 273.253 235.988 273.801 233.952 274.351C229.98 276.116 225.974 277.913 221.963 279.71C223.937 279.222 225.919 278.722 227.886 278.242ZM211.748 285.693C215.972 283.727 220.208 281.749 224.363 279.842C222.348 280.339 220.333 280.837 218.311 281.342C214.106 283.233 209.897 285.127 205.647 287.055C207.685 286.593 209.713 286.147 211.748 285.693ZM195.309 293.326C199.815 291.227 204.282 289.161 208.776 287.073C206.692 287.542 204.61 288.007 202.52 288.484C198.127 290.482 193.692 292.513 189.254 294.55C191.273 294.136 193.291 293.732 195.309 293.326ZM1276.09 232.138C1275.25 231.823 1274.41 231.501 1273.56 231.181C1271.66 231.399 1269.75 231.621 1267.85 231.835C1268.74 232.118 1269.63 232.401 1270.51 232.679C1272.37 232.503 1274.23 232.32 1276.09 232.138ZM1280.03 233.588C1279.21 233.29 1278.39 232.985 1277.57 232.684C1275.79 232.859 1274.01 233.039 1272.23 233.211C1273.1 233.478 1273.97 233.74 1274.84 234.004C1276.57 233.87 1278.3 233.728 1280.03 233.588ZM1284.01 234.995C1283.21 234.716 1282.41 234.436 1281.61 234.152C1279.96 234.287 1278.31 234.422 1276.65 234.553C1277.5 234.803 1278.34 235.046 1279.19 235.292C1280.79 235.196 1282.4 235.096 1284.01 234.995ZM1287.99 236.365C1287.22 236.105 1286.45 235.85 1285.69 235.587C1284.18 235.682 1282.67 235.773 1281.17 235.865C1281.96 236.091 1282.75 236.319 1283.55 236.541C1285.03 236.484 1286.51 236.428 1287.99 236.365ZM1291.95 237.683C1291.24 237.453 1290.54 237.217 1289.83 236.983C1288.47 237.043 1287.12 237.098 1285.77 237.151C1286.51 237.354 1287.24 237.561 1287.98 237.761C1289.3 237.738 1290.62 237.712 1291.95 237.683ZM1295.89 238.946C1295.25 238.746 1294.62 238.538 1293.99 238.336C1292.82 238.363 1291.65 238.395 1290.48 238.419C1291.15 238.595 1291.82 238.767 1292.48 238.94C1293.62 238.945 1294.76 238.945 1295.89 238.946ZM1299.85 240.159C1299.29 239.992 1298.74 239.827 1298.19 239.657C1297.22 239.658 1296.24 239.653 1295.27 239.652C1295.84 239.794 1296.41 239.931 1296.98 240.072C1297.94 240.101 1298.89 240.133 1299.85 240.159ZM1303.63 241.285C1303.22 241.166 1302.81 241.052 1302.4 240.932C1301.71 240.917 1301.01 240.907 1300.31 240.889C1300.73 240.988 1301.15 241.081 1301.57 241.178C1302.25 241.217 1302.94 241.248 1303.63 241.285ZM1307.24 242.318L1306.73 242.172C1306.37 242.154 1306 242.134 1305.64 242.116C1305.79 242.149 1305.94 242.185 1306.09 242.219L1307.24 242.318ZM347.192 226.728L349.788 225.613L349.586 225.686C348.653 226.076 347.691 226.489 346.75 226.885L347.192 226.728ZM332.165 233.239C333.761 232.534 335.37 231.819 336.941 231.134L335.444 231.665C333.66 232.42 331.867 233.18 330.092 233.927C330.79 233.691 331.469 233.473 332.165 233.239ZM317.02 239.912C319.488 238.826 321.969 237.729 324.433 236.646C323.055 237.116 321.66 237.602 320.276 238.076C317.955 239.071 315.581 240.108 313.221 241.134C314.495 240.721 315.752 240.322 317.02 239.912ZM301.497 246.785C304.554 245.417 307.56 244.092 310.59 242.746C309.108 243.23 307.623 243.718 306.136 244.207C303.059 245.541 299.972 246.881 296.896 248.214C298.43 247.737 299.969 247.256 301.497 246.785ZM286.192 253.69C289.503 252.193 292.822 250.691 296.106 249.217C294.314 249.775 292.535 250.32 290.734 250.886C287.459 252.322 284.137 253.798 280.811 255.276C282.605 254.747 284.404 254.213 286.192 253.69ZM270.07 260.976C273.88 259.24 277.611 257.57 281.398 255.853C279.487 256.417 277.555 257.003 275.634 257.576C271.953 259.209 268.268 260.846 264.575 262.489C266.414 261.976 268.237 261.48 270.07 260.976ZM254.335 268.235C258.266 266.415 262.206 264.59 266.088 262.813C264.096 263.366 262.117 263.906 260.117 264.47C256.198 266.227 252.231 268.024 248.256 269.828C250.279 269.301 252.318 268.753 254.335 268.235ZM237.796 275.863C242.113 273.859 246.345 271.925 250.643 269.937C248.58 270.473 246.507 271.019 244.435 271.565C240.257 273.46 236.074 275.359 231.872 277.274C233.854 276.795 235.822 276.334 237.796 275.863ZM221.501 283.532C225.905 281.451 230.323 279.359 234.658 277.335C232.589 277.832 230.526 278.322 228.452 278.829C224.095 280.824 219.692 282.859 215.275 284.905C217.352 284.445 219.429 283.983 221.501 283.532ZM204.673 291.46C209.366 289.242 213.999 287.072 218.684 284.859C216.563 285.325 214.43 285.81 212.304 286.284C207.721 288.408 203.132 290.536 198.518 292.687C200.57 292.278 202.624 291.861 204.673 291.46ZM1283.86 231.369C1283.04 231.006 1282.21 230.641 1281.39 230.274C1279.41 230.508 1277.43 230.737 1275.45 230.964C1276.33 231.293 1277.21 231.616 1278.09 231.942C1280.01 231.753 1281.94 231.564 1283.86 231.369ZM1287.58 232.966C1286.76 232.62 1285.95 232.277 1285.13 231.926C1283.28 232.117 1281.42 232.303 1279.57 232.486C1280.43 232.798 1281.28 233.111 1282.14 233.417C1283.95 233.269 1285.76 233.12 1287.58 232.966ZM1291.31 234.523C1290.51 234.197 1289.72 233.871 1288.93 233.539C1287.2 233.689 1285.47 233.837 1283.74 233.98C1284.57 234.273 1285.4 234.571 1286.23 234.859C1287.92 234.751 1289.61 234.637 1291.31 234.523ZM1295.04 236.041C1294.28 235.738 1293.52 235.425 1292.77 235.118C1291.16 235.227 1289.56 235.34 1287.96 235.445C1288.77 235.72 1289.57 235.991 1290.38 236.261C1291.93 236.19 1293.49 236.116 1295.04 236.041ZM1298.85 237.519C1298.11 237.237 1297.38 236.949 1296.64 236.662C1295.16 236.736 1293.69 236.802 1292.21 236.871C1292.99 237.126 1293.77 237.371 1294.56 237.621C1295.99 237.589 1297.41 237.559 1298.85 237.519ZM1302.61 238.933C1301.92 238.678 1301.23 238.426 1300.54 238.167C1299.22 238.206 1297.91 238.241 1296.59 238.273C1297.32 238.502 1298.05 238.727 1298.79 238.952C1300.06 238.95 1301.34 238.94 1302.61 238.933ZM1306.37 240.298C1305.74 240.074 1305.11 239.852 1304.48 239.626C1303.35 239.634 1302.21 239.643 1301.08 239.649C1301.72 239.842 1302.36 240.039 1303 240.229C1304.12 240.252 1305.24 240.278 1306.37 240.298ZM1310.08 241.602C1309.56 241.423 1309.04 241.236 1308.52 241.056C1307.58 241.041 1306.63 241.02 1305.69 241C1306.25 241.159 1306.8 241.32 1307.35 241.476C1308.26 241.52 1309.17 241.561 1310.08 241.602ZM1313.74 242.822L1312.55 242.428C1311.87 242.4 1311.18 242.373 1310.5 242.344L1311.71 242.672L1313.74 242.822ZM1317.23 243.951L1316.66 243.772L1315.62 243.701L1316.17 243.837L1317.23 243.951ZM358.995 222.645C360.608 221.931 362.215 221.222 363.81 220.522L362.142 221.127C360.483 221.835 358.796 222.567 357.127 223.284C357.753 223.068 358.371 222.861 358.995 222.645ZM343.874 229.352C346.361 228.251 348.864 227.138 351.351 226.036C350.186 226.442 348.986 226.877 347.816 227.287C345.229 228.404 342.684 229.486 340.091 230.607C341.353 230.188 342.616 229.768 343.874 229.352ZM328.597 236.188C331.401 234.92 334.205 233.651 336.969 232.414C335.547 232.89 334.149 233.344 332.722 233.825C329.848 235.081 326.925 236.378 324.015 237.663C325.536 237.177 327.082 236.668 328.597 236.188ZM312.744 243.355C316.079 241.845 319.405 240.343 322.732 238.84C321.024 239.386 319.31 239.939 317.595 240.493C314.265 241.965 310.974 243.405 307.638 244.881C309.355 244.358 311.036 243.87 312.744 243.355ZM296.904 250.609C300.569 248.918 304.247 247.216 307.858 245.569C305.946 246.151 303.998 246.77 302.077 247.361C298.532 248.946 294.922 250.586 291.323 252.215C293.187 251.675 295.048 251.141 296.904 250.609ZM280.738 258.051C284.715 256.208 288.622 254.424 292.574 252.603C290.631 253.164 288.707 253.706 286.755 254.276C282.757 256.083 278.79 257.864 274.784 259.678C276.767 259.137 278.763 258.583 280.738 258.051ZM264.425 265.687C268.617 263.719 272.814 261.747 276.952 259.821C274.856 260.391 272.741 260.981 270.636 261.56C266.611 263.398 262.5 265.307 258.408 267.202C260.421 266.69 262.421 266.192 264.425 265.687ZM247.842 273.486C252.273 271.389 256.658 269.331 261.048 267.27C258.995 267.79 256.958 268.293 254.897 268.822C250.46 270.871 246.049 272.897 241.598 274.958C243.678 274.467 245.767 273.967 247.842 273.486ZM231.027 281.49C235.657 279.28 240.275 277.077 244.857 274.906C242.696 275.413 240.522 275.938 238.354 276.454C233.903 278.529 229.359 280.68 224.83 282.819C226.898 282.372 228.965 281.927 231.027 281.49ZM213.982 289.67C218.779 287.356 223.561 285.054 228.3 282.788C226.217 283.234 224.137 283.675 222.05 284.128C217.282 286.377 212.547 288.598 207.762 290.86C209.839 290.456 211.91 290.065 213.982 289.67ZM1291.63 230.556C1290.83 230.149 1290.03 229.743 1289.24 229.33C1287.22 229.577 1285.2 229.819 1283.17 230.06C1284.01 230.433 1284.85 230.809 1285.7 231.176C1287.67 230.972 1289.65 230.766 1291.63 230.556ZM1295.11 232.308C1294.32 231.919 1293.54 231.524 1292.76 231.129C1290.84 231.334 1288.92 231.533 1287 231.731C1287.83 232.088 1288.67 232.444 1289.51 232.797C1291.37 232.637 1293.24 232.476 1295.11 232.308ZM1298.6 234.018C1297.83 233.649 1297.07 233.27 1296.31 232.895C1294.49 233.06 1292.68 233.215 1290.87 233.37C1291.69 233.712 1292.53 234.046 1293.35 234.384C1295.1 234.264 1296.85 234.145 1298.6 234.018ZM1302.14 235.679C1301.38 235.328 1300.62 234.974 1299.87 234.617C1298.18 234.741 1296.5 234.861 1294.81 234.978C1295.62 235.302 1296.43 235.619 1297.25 235.938C1298.87 235.856 1300.51 235.766 1302.14 235.679ZM1305.7 237.302C1304.96 236.969 1304.21 236.641 1303.47 236.302C1301.93 236.386 1300.38 236.475 1298.84 236.555C1299.61 236.853 1300.38 237.154 1301.15 237.447C1302.67 237.401 1304.18 237.353 1305.7 237.302ZM1309.27 238.877C1308.56 238.572 1307.86 238.264 1307.16 237.955C1305.74 238.005 1304.32 238.047 1302.89 238.091C1303.64 238.367 1304.37 238.645 1305.12 238.916C1306.5 238.906 1307.88 238.895 1309.27 238.877ZM1312.82 240.39C1312.17 240.116 1311.52 239.834 1310.87 239.556C1309.59 239.574 1308.32 239.595 1307.05 239.607C1307.75 239.858 1308.46 240.104 1309.16 240.349C1310.38 240.366 1311.6 240.377 1312.82 240.39ZM1316.45 241.862C1315.84 241.618 1315.23 241.372 1314.62 241.124C1313.5 241.114 1312.39 241.099 1311.28 241.087C1311.92 241.305 1312.57 241.515 1313.22 241.73C1314.29 241.776 1315.37 241.823 1316.45 241.862ZM1319.97 243.244C1319.44 243.043 1318.92 242.848 1318.39 242.644C1317.5 242.614 1316.6 242.59 1315.7 242.557C1316.25 242.733 1316.79 242.905 1317.33 243.079C1318.21 243.138 1319.09 243.189 1319.97 243.244ZM1323.43 244.562C1323.04 244.418 1322.66 244.269 1322.27 244.123C1321.6 244.084 1320.94 244.038 1320.27 243.998C1320.66 244.119 1321.05 244.246 1321.45 244.367C1322.11 244.431 1322.77 244.501 1323.43 244.562ZM1326.73 245.749L1326.17 245.549L1325.17 245.463L1325.71 245.622C1326.05 245.665 1326.39 245.706 1326.73 245.749ZM386.26 211.753C387.831 211.052 389.417 210.339 390.969 209.653C390.314 209.894 389.642 210.149 388.985 210.39C387.387 211.078 385.754 211.794 384.138 212.497L386.26 211.753ZM371.131 218.5L378.067 215.406C376.994 215.786 375.945 216.146 374.868 216.529C372.384 217.61 369.913 218.681 367.424 219.767C368.654 219.349 369.905 218.914 371.131 218.5ZM355.67 225.473C358.396 224.233 361.132 222.982 363.824 221.77C362.365 222.268 360.911 222.763 359.445 223.266C356.732 224.462 353.974 225.692 351.232 226.911C352.719 226.424 354.19 225.953 355.67 225.473ZM339.656 232.746C343.017 231.212 346.327 229.719 349.672 228.197C347.908 228.775 346.115 229.381 344.342 229.967C341.07 231.424 337.831 232.854 334.532 234.333C336.25 233.796 337.947 233.277 339.656 232.746ZM323.887 240.023C327.469 238.364 331.059 236.699 334.601 235.072C332.76 235.65 330.935 236.21 329.085 236.796C325.464 238.425 321.813 240.08 318.164 241.734C320.071 241.165 321.989 240.583 323.887 240.023ZM307.596 247.577C311.517 245.747 315.387 243.958 319.275 242.155C317.269 242.753 315.266 243.348 313.251 243.956C309.439 245.691 305.6 247.447 301.741 249.219C303.701 248.664 305.646 248.122 307.596 247.577ZM291.18 255.29C295.376 253.314 299.565 251.343 303.724 249.397C301.636 249.986 299.513 250.611 297.416 251.211C293.29 253.107 289.16 255.007 285.014 256.92C287.074 256.371 289.128 255.83 291.18 255.29ZM274.579 263.152C278.943 261.074 283.285 259.011 287.598 256.974C285.483 257.536 283.384 258.078 281.259 258.65C276.994 260.629 272.65 262.674 268.32 264.707C270.408 264.187 272.5 263.663 274.579 263.152ZM257.607 271.255C262.235 269.038 266.831 266.849 271.429 264.656C269.277 265.188 267.106 265.745 264.946 266.289C260.387 268.426 255.866 270.534 251.271 272.702C253.386 272.214 255.497 271.733 257.607 271.255ZM240.545 279.499C245.288 277.195 250.037 274.885 254.71 272.638C252.594 273.122 250.486 273.595 248.362 274.088C243.709 276.29 238.995 278.541 234.281 280.793C236.374 280.352 238.456 279.931 240.545 279.499ZM223.15 287.94C228.135 285.508 233.045 283.139 237.997 280.734C235.853 281.18 233.704 281.635 231.555 282.09C226.696 284.413 221.824 286.747 216.914 289.11C218.994 288.716 221.073 288.326 223.15 287.94ZM1299.41 229.711C1298.66 229.261 1297.91 228.804 1297.16 228.347C1295.08 228.607 1293.01 228.872 1290.93 229.128C1291.74 229.547 1292.56 229.96 1293.38 230.373C1295.39 230.157 1297.4 229.933 1299.41 229.711ZM1302.65 231.608C1301.9 231.174 1301.15 230.734 1300.41 230.293C1298.44 230.511 1296.47 230.734 1294.5 230.946C1295.31 231.351 1296.12 231.747 1296.93 232.145C1298.83 231.971 1300.74 231.788 1302.65 231.608ZM1305.94 233.467C1305.19 233.048 1304.44 232.629 1303.69 232.204C1301.83 232.381 1299.97 232.554 1298.12 232.726C1298.91 233.111 1299.7 233.496 1300.5 233.876C1302.31 233.742 1304.12 233.608 1305.94 233.467ZM1309.24 235.28C1308.5 234.882 1307.76 234.484 1307.03 234.079C1305.28 234.217 1303.53 234.345 1301.78 234.473C1302.56 234.84 1303.33 235.21 1304.12 235.571C1305.82 235.477 1307.53 235.382 1309.24 235.28ZM1312.56 237.046C1311.83 236.67 1311.12 236.286 1310.4 235.904C1308.77 236.003 1307.13 236.1 1305.5 236.191C1306.27 236.542 1307.05 236.89 1307.83 237.234C1309.4 237.178 1310.98 237.11 1312.56 237.046ZM1315.92 238.772C1315.22 238.417 1314.52 238.054 1313.82 237.694C1312.3 237.757 1310.79 237.819 1309.27 237.877C1310.02 238.204 1310.78 238.519 1311.54 238.841C1313 238.819 1314.46 238.801 1315.92 238.772ZM1319.3 240.434C1318.63 240.107 1317.95 239.78 1317.28 239.449C1315.89 239.478 1314.51 239.499 1313.13 239.52C1313.85 239.823 1314.58 240.12 1315.31 240.417C1316.64 240.428 1317.97 240.43 1319.3 240.434ZM1322.71 242.053C1322.06 241.752 1321.41 241.454 1320.77 241.148C1319.55 241.147 1318.32 241.148 1317.1 241.143C1317.77 241.409 1318.42 241.68 1319.09 241.942C1320.3 241.979 1321.5 242.021 1322.71 242.053ZM1326.07 243.6C1325.5 243.344 1324.93 243.079 1324.36 242.819C1323.28 242.793 1322.21 242.759 1321.14 242.727C1321.76 242.963 1322.37 243.201 1322.99 243.433C1324.01 243.493 1325.04 243.546 1326.07 243.6ZM1329.46 245.084C1328.95 244.868 1328.46 244.646 1327.96 244.427C1327.08 244.383 1326.2 244.339 1325.32 244.293C1325.85 244.485 1326.38 244.675 1326.91 244.866C1327.76 244.938 1328.6 245.014 1329.46 245.084ZM1332.76 246.473C1332.38 246.316 1332 246.16 1331.62 246.001C1330.97 245.951 1330.33 245.902 1329.68 245.85C1330.09 245.992 1330.51 246.129 1330.92 246.269C1331.53 246.341 1332.15 246.404 1332.76 246.473ZM1335.88 247.746C1335.69 247.668 1335.49 247.594 1335.29 247.515C1334.95 247.479 1334.62 247.44 1334.29 247.405C1334.48 247.468 1334.68 247.528 1334.88 247.592C1335.21 247.643 1335.55 247.696 1335.88 247.746ZM413.918 200.579C415.396 199.918 416.89 199.245 418.357 198.591C417.799 198.799 417.259 198.992 416.7 199.2C415.107 199.891 413.479 200.611 411.871 201.315C412.551 201.072 413.24 200.82 413.918 200.579ZM398.562 207.453C400.736 206.474 402.866 205.53 405.031 204.557C403.968 204.94 402.915 205.315 401.848 205.701C399.597 206.688 397.374 207.654 395.116 208.647C396.262 208.252 397.42 207.846 398.562 207.453ZM382.872 214.586C385.621 213.331 388.383 212.068 391.111 210.831C389.633 211.345 388.137 211.875 386.652 212.395C383.975 213.583 381.264 214.799 378.566 216.003C380.012 215.521 381.432 215.062 382.872 214.586ZM366.928 221.875C370.242 220.348 373.51 218.859 376.796 217.355C375.069 217.932 373.316 218.534 371.58 219.12C368.327 220.578 365.084 222.029 361.801 223.514C363.513 222.964 365.224 222.416 366.928 221.875ZM351.147 229.188C354.639 227.568 358.135 225.945 361.607 224.34C359.772 224.929 357.961 225.498 356.118 226.096C352.55 227.712 348.963 229.344 345.379 230.974C347.295 230.386 349.241 229.767 351.147 229.188ZM334.701 236.871C338.557 235.057 342.4 233.254 346.208 231.477C344.19 232.096 342.157 232.73 340.128 233.36C336.426 235.055 332.672 236.794 328.919 238.531C330.861 237.963 332.768 237.429 334.701 236.871ZM318.167 244.659C322.337 242.689 326.481 240.741 330.632 238.788C328.558 239.392 326.47 240.011 324.385 240.627C320.236 242.546 316.128 244.433 311.952 246.374C314.027 245.799 316.102 245.224 318.167 244.659ZM301.537 252.59C305.832 250.53 310.139 248.461 314.373 246.45C312.279 247.028 310.194 247.597 308.09 248.185C303.854 250.163 299.563 252.188 295.274 254.208C297.367 253.663 299.454 253.125 301.537 252.59ZM284.477 260.765C289.109 258.532 293.671 256.356 298.266 254.154C296.089 254.717 293.882 255.316 291.694 255.891C287.201 258.011 282.708 260.13 278.168 262.286C280.274 261.774 282.378 261.267 284.477 260.765ZM267.369 269.069C272.099 266.767 276.819 264.471 281.495 262.212C279.359 262.727 277.231 263.232 275.087 263.758C270.418 265.98 265.729 268.219 261.018 270.476C263.14 269.999 265.253 269.536 267.369 269.069ZM249.989 277.558C254.915 275.14 259.806 272.75 264.677 270.375C262.499 270.861 260.309 271.363 258.124 271.859C253.323 274.164 248.471 276.512 243.607 278.87C245.734 278.434 247.868 277.984 249.989 277.558ZM232.317 286.259C237.409 283.742 242.46 281.26 247.508 278.779C245.363 279.214 243.211 279.66 241.061 280.105C236.026 282.545 231.033 284.954 225.962 287.424C228.081 287.033 230.201 286.642 232.317 286.259ZM1307.24 228.834C1306.52 228.338 1305.81 227.84 1305.1 227.337C1302.98 227.611 1300.87 227.88 1298.75 228.147C1299.52 228.609 1300.29 229.071 1301.07 229.528C1303.12 229.301 1305.18 229.071 1307.24 228.834ZM1310.24 230.874C1309.53 230.392 1308.8 229.915 1308.09 229.428C1306.08 229.659 1304.07 229.886 1302.06 230.11C1302.83 230.557 1303.59 231.008 1304.36 231.448C1306.32 231.261 1308.28 231.069 1310.24 230.874ZM1313.28 232.875C1312.56 232.412 1311.85 231.947 1311.14 231.477C1309.23 231.667 1307.32 231.858 1305.41 232.042C1306.18 232.474 1306.94 232.906 1307.71 233.332C1309.56 233.185 1311.42 233.028 1313.28 232.875ZM1316.34 234.839C1315.63 234.395 1314.93 233.941 1314.23 233.489C1312.42 233.641 1310.61 233.791 1308.8 233.937C1309.56 234.351 1310.33 234.758 1311.09 235.165C1312.84 235.06 1314.59 234.953 1316.34 234.839ZM1319.45 236.75C1318.75 236.327 1318.06 235.899 1317.37 235.47C1315.66 235.584 1313.95 235.685 1312.25 235.789C1313 236.186 1313.76 236.577 1314.52 236.967C1316.16 236.899 1317.8 236.825 1319.45 236.75ZM1322.59 238.614C1321.9 238.209 1321.2 237.808 1320.51 237.396C1318.93 237.472 1317.36 237.548 1315.78 237.615C1316.52 237.988 1317.25 238.361 1317.99 238.728C1319.52 238.693 1321.05 238.655 1322.59 238.614ZM1325.76 240.432C1325.08 240.052 1324.41 239.673 1323.74 239.288C1322.28 239.329 1320.82 239.363 1319.36 239.397C1320.07 239.745 1320.77 240.095 1321.49 240.438C1322.91 240.439 1324.33 240.439 1325.76 240.432ZM1328.92 242.191C1328.28 241.843 1327.65 241.485 1327.01 241.132C1325.68 241.14 1324.34 241.149 1323.01 241.152C1323.7 241.476 1324.39 241.796 1325.09 242.115C1326.36 242.144 1327.64 242.167 1328.92 242.191ZM1332.15 243.899C1331.54 243.582 1330.94 243.259 1330.33 242.936C1329.13 242.917 1327.93 242.89 1326.73 242.866C1327.38 243.16 1328.05 243.445 1328.71 243.734C1329.86 243.792 1331 243.848 1332.15 243.899ZM1335.37 245.533C1334.81 245.25 1334.24 244.973 1333.68 244.686C1332.65 244.645 1331.62 244.608 1330.6 244.562C1331.19 244.816 1331.79 245.065 1332.38 245.315C1333.38 245.39 1334.37 245.462 1335.37 245.533ZM1338.56 247.099C1338.08 246.866 1337.59 246.636 1337.11 246.401C1336.26 246.345 1335.41 246.278 1334.56 246.216C1335.07 246.423 1335.57 246.636 1336.08 246.84C1336.91 246.928 1337.73 247.015 1338.56 247.099ZM1341.67 248.562C1341.31 248.395 1340.95 248.22 1340.58 248.051C1339.97 247.991 1339.35 247.934 1338.74 247.873C1339.12 248.02 1339.5 248.172 1339.89 248.317C1340.48 248.4 1341.07 248.482 1341.67 248.562ZM1344.71 249.92L1344.15 249.67C1343.84 249.631 1343.53 249.596 1343.23 249.556L1343.82 249.771C1344.11 249.823 1344.41 249.868 1344.71 249.92ZM441.879 189.162C443.096 188.618 444.323 188.064 445.538 187.52C445.019 187.715 444.509 187.904 443.99 188.101C442.69 188.669 441.363 189.257 440.055 189.831C440.656 189.612 441.278 189.379 441.879 189.162ZM425.943 196.34C428.052 195.38 430.133 194.44 432.221 193.497C431.197 193.872 430.166 194.252 429.139 194.63C426.971 195.587 424.856 196.503 422.674 197.472C423.774 197.085 424.847 196.722 425.943 196.34ZM410.288 203.489C413.096 202.208 415.915 200.917 418.72 199.638C417.248 200.158 415.731 200.717 414.253 201.243C411.515 202.465 408.754 203.707 406.008 204.936C407.439 204.449 408.862 203.971 410.288 203.489ZM394.528 210.749C397.618 209.313 400.712 207.874 403.759 206.471C402.147 207.022 400.57 207.541 398.95 208.098C395.782 209.527 392.579 210.985 389.369 212.447C391.084 211.885 392.821 211.304 394.528 210.749ZM378.336 218.267C381.856 216.627 385.342 215.015 388.848 213.387C387.003 213.992 385.16 214.597 383.306 215.212C379.811 216.805 376.338 218.382 372.827 219.989C374.671 219.408 376.502 218.839 378.336 218.267ZM362.007 225.952C365.837 224.142 369.675 222.324 373.456 220.551C371.447 221.184 369.396 221.853 367.375 222.495C363.678 224.199 359.928 225.945 356.185 227.684C358.137 227.097 360.066 226.529 362.007 225.952ZM345.443 233.787C349.55 231.833 353.602 229.922 357.673 227.997C355.647 228.606 353.653 229.183 351.616 229.802C347.505 231.715 343.403 233.62 339.251 235.565C341.314 234.974 343.392 234.367 345.443 233.787ZM328.67 241.82C332.977 239.753 337.278 237.69 341.545 235.654C339.431 236.256 337.312 236.866 335.187 237.48C330.968 239.461 326.726 241.461 322.473 243.47C324.551 242.907 326.603 242.373 328.67 241.82ZM311.662 250.026C316.205 247.822 320.731 245.632 325.22 243.472C323.045 244.058 320.847 244.668 318.662 245.266C314.241 247.361 309.773 249.496 305.294 251.639C307.419 251.097 309.545 250.556 311.662 250.026ZM294.385 258.419C299.117 256.113 303.811 253.837 308.511 251.556C306.354 252.101 304.205 252.639 302.039 253.195C297.358 255.435 292.708 257.648 287.992 259.916C290.129 259.408 292.255 258.916 294.385 258.419ZM277.002 266.963C281.868 264.56 286.75 262.145 291.544 259.8C289.366 260.312 287.17 260.847 284.983 261.37C280.224 263.667 275.394 266.02 270.57 268.369C272.714 267.899 274.864 267.422 277.002 266.963ZM259.23 275.736C264.316 273.213 269.335 270.744 274.379 268.254C272.215 268.724 270.049 269.197 267.878 269.676C262.903 272.099 257.932 274.518 252.908 276.98C255.019 276.559 257.123 276.149 259.23 275.736ZM241.374 284.649C246.572 282.047 251.754 279.456 256.885 276.906C254.758 277.327 252.637 277.734 250.505 278.163C245.395 280.67 240.258 283.2 235.093 285.753C237.19 285.377 239.279 285.018 241.374 284.649ZM1315.1 227.918C1314.42 227.376 1313.75 226.836 1313.08 226.288C1310.93 226.575 1308.78 226.856 1306.64 227.136C1307.36 227.644 1308.08 228.153 1308.81 228.652C1310.9 228.411 1313 228.168 1315.1 227.918ZM1317.86 230.107C1317.19 229.582 1316.52 229.053 1315.85 228.522C1313.79 228.768 1311.73 229.006 1309.68 229.242C1310.4 229.736 1311.13 230.224 1311.86 230.712C1313.86 230.513 1315.86 230.315 1317.86 230.107ZM1320.64 232.248C1319.97 231.743 1319.31 231.226 1318.65 230.715C1316.68 230.921 1314.72 231.118 1312.76 231.315C1313.49 231.795 1314.23 232.264 1314.96 232.736C1316.85 232.578 1318.74 232.414 1320.64 232.248ZM1323.48 234.348C1322.81 233.857 1322.14 233.363 1321.47 232.866C1319.62 233.031 1317.77 233.196 1315.92 233.352C1316.64 233.812 1317.37 234.27 1318.1 234.724C1319.89 234.603 1321.69 234.475 1323.48 234.348ZM1326.37 236.411C1325.7 235.935 1325.02 235.465 1324.35 234.982C1322.6 235.107 1320.86 235.228 1319.11 235.349C1319.83 235.787 1320.53 236.23 1321.25 236.662C1322.96 236.582 1324.66 236.502 1326.37 236.411ZM1329.27 238.414C1328.61 237.965 1327.95 237.512 1327.29 237.057C1325.64 237.146 1324 237.227 1322.35 237.307C1323.07 237.73 1323.78 238.15 1324.5 238.567C1326.09 238.521 1327.68 238.466 1329.27 238.414ZM1332.2 240.378C1331.55 239.953 1330.91 239.513 1330.26 239.081C1328.73 239.133 1327.19 239.189 1325.66 239.236C1326.36 239.635 1327.07 240.023 1327.78 240.415C1329.25 240.405 1330.72 240.397 1332.2 240.378ZM1335.19 242.278C1334.56 241.88 1333.92 241.478 1333.29 241.072C1331.87 241.092 1330.45 241.103 1329.03 241.114C1329.72 241.491 1330.42 241.862 1331.12 242.234C1332.47 242.255 1333.83 242.265 1335.19 242.278ZM1338.22 244.137C1337.59 243.76 1336.96 243.389 1336.34 243.005C1335.06 242.995 1333.78 242.987 1332.51 242.971C1333.16 243.312 1333.81 243.654 1334.47 243.99C1335.72 244.041 1336.96 244.095 1338.22 244.137ZM1341.23 245.917C1340.65 245.581 1340.07 245.243 1339.49 244.902C1338.34 244.866 1337.19 244.824 1336.04 244.779C1336.67 245.093 1337.29 245.41 1337.92 245.719C1339.02 245.791 1340.13 245.85 1341.23 245.917ZM1344.27 247.649C1343.73 247.351 1343.21 247.043 1342.68 246.741C1341.68 246.684 1340.68 246.623 1339.69 246.562C1340.26 246.834 1340.83 247.104 1341.4 247.372C1342.36 247.464 1343.31 247.563 1344.27 247.649ZM1347.3 249.279C1346.84 249.033 1346.37 248.785 1345.91 248.535C1345.1 248.465 1344.28 248.401 1343.47 248.328C1343.97 248.555 1344.48 248.774 1344.98 248.997C1345.75 249.094 1346.53 249.186 1347.3 249.279ZM1350.31 250.838C1349.94 250.653 1349.57 250.472 1349.21 250.284C1348.59 250.213 1347.99 250.135 1347.38 250.062C1347.78 250.232 1348.18 250.393 1348.58 250.56C1349.16 250.653 1349.73 250.748 1350.31 250.838ZM1353.06 252.223C1352.88 252.137 1352.71 252.047 1352.54 251.96L1351.63 251.826C1351.81 251.899 1351.99 251.976 1352.17 252.048L1353.06 252.223ZM469.325 177.877L473.011 176.22L471.678 176.73C470.436 177.276 469.18 177.834 467.936 178.38C468.404 178.209 468.858 178.048 469.325 177.877ZM453.698 184.973C455.783 184.018 457.885 183.052 459.949 182.114C458.886 182.508 457.795 182.925 456.728 183.322C454.661 184.241 452.575 185.174 450.485 186.112C451.561 185.728 452.626 185.354 453.698 184.973ZM437.91 192.193C440.653 190.93 443.342 189.711 446.071 188.46C444.764 188.929 443.498 189.365 442.186 189.839C439.35 191.113 436.523 192.377 433.677 193.659C435.086 193.172 436.507 192.675 437.91 192.193ZM422.311 199.435C425.294 198.048 428.288 196.65 431.246 195.281C429.598 195.854 427.961 196.415 426.304 196.994C423.3 198.358 420.25 199.759 417.214 201.148C418.907 200.582 420.626 199.993 422.311 199.435ZM405.842 207.121C409.35 205.472 412.818 203.854 416.291 202.233C414.44 202.852 412.562 203.495 410.701 204.124C407.288 205.688 403.896 207.236 400.453 208.825C402.265 208.244 404.039 207.696 405.842 207.121ZM389.486 214.843C393.312 213.034 397.136 211.226 400.938 209.436C398.962 210.072 396.97 210.722 394.981 211.368C391.211 213.113 387.417 214.879 383.623 216.645C385.581 216.04 387.538 215.438 389.486 214.843ZM373.046 222.673C377.009 220.774 380.97 218.875 384.88 217.018C382.846 217.645 380.834 218.252 378.789 218.889C374.83 220.74 370.822 222.63 366.808 224.524C368.881 223.914 370.985 223.273 373.046 222.673ZM355.961 230.861C360.31 228.767 364.599 226.721 368.918 224.652C366.784 225.278 364.627 225.928 362.481 226.567C358.246 228.566 354.043 230.539 349.778 232.562C351.853 231.98 353.896 231.431 355.961 230.861ZM339.042 239.077C343.511 236.899 347.987 234.716 352.397 232.585C350.248 233.184 348.103 233.781 345.943 234.391C341.54 236.487 337.074 238.634 332.614 240.777C334.757 240.21 336.91 239.632 339.042 239.077ZM321.685 247.543C326.391 245.236 331.047 242.968 335.703 240.699C333.529 241.271 331.352 241.844 329.167 242.428C324.571 244.636 319.969 246.85 315.322 249.098C317.453 248.568 319.564 248.062 321.685 247.543ZM304.22 256.148C309.094 253.74 313.95 251.347 318.774 248.977C316.583 249.518 314.377 250.076 312.175 250.628C307.383 252.95 302.572 255.288 297.736 257.645C299.898 257.145 302.065 256.638 304.22 256.148ZM286.475 264.96C291.492 262.458 296.5 259.963 301.452 257.512C299.269 258.012 297.087 258.515 294.895 259.026C290.013 261.412 285.064 263.85 280.112 266.29C282.241 265.836 284.354 265.405 286.475 264.96ZM268.488 273.938C273.696 271.328 278.842 268.768 284.008 266.191C281.847 266.648 279.688 267.101 277.52 267.569C272.379 270.101 267.276 272.604 262.091 275.173C264.226 274.758 266.359 274.345 268.488 273.938ZM250.394 283.075C255.699 280.387 261.015 277.692 266.236 275.068C264.079 275.483 261.911 275.92 259.748 276.343C254.568 278.915 249.314 281.546 244.057 284.178C246.17 283.808 248.285 283.437 250.394 283.075ZM1322.97 226.959C1322.35 226.376 1321.74 225.786 1321.12 225.196C1318.94 225.495 1316.75 225.798 1314.57 226.093C1315.25 226.647 1315.93 227.193 1316.62 227.741C1318.73 227.486 1320.85 227.22 1322.97 226.959ZM1325.49 229.29C1324.87 228.722 1324.25 228.145 1323.63 227.57C1321.54 227.828 1319.45 228.088 1317.37 228.341C1318.04 228.879 1318.73 229.41 1319.42 229.94C1321.44 229.726 1323.46 229.511 1325.49 229.29ZM1328.07 231.579C1327.44 231.026 1326.81 230.47 1326.18 229.908C1324.19 230.127 1322.2 230.338 1320.2 230.548C1320.88 231.069 1321.56 231.59 1322.25 232.103C1324.19 231.932 1326.13 231.76 1328.07 231.579ZM1330.67 233.816C1330.03 233.281 1329.4 232.747 1328.78 232.205C1326.87 232.383 1324.98 232.553 1323.09 232.722C1323.77 233.227 1324.45 233.735 1325.13 234.232C1326.97 234.099 1328.82 233.958 1330.67 233.816ZM1333.31 236.018C1332.67 235.5 1332.04 234.977 1331.42 234.452C1329.62 234.591 1327.82 234.733 1326.02 234.865C1326.7 235.352 1327.39 235.835 1328.08 236.315C1329.82 236.219 1331.56 236.121 1333.31 236.018ZM1335.97 238.167C1335.35 237.674 1334.73 237.17 1334.11 236.668C1332.4 236.771 1330.7 236.866 1329 236.959C1329.68 237.43 1330.38 237.889 1331.07 238.352C1332.7 238.295 1334.33 238.234 1335.97 238.167ZM1338.71 240.266C1338.08 239.791 1337.45 239.313 1336.83 238.831C1335.24 238.897 1333.65 238.963 1332.06 239.021C1332.74 239.467 1333.41 239.91 1334.1 240.351C1335.63 240.326 1337.17 240.297 1338.71 240.266ZM1341.48 242.317C1340.85 241.864 1340.23 241.416 1339.61 240.956C1338.13 240.989 1336.65 241.013 1335.18 241.038C1335.84 241.458 1336.49 241.884 1337.16 242.297C1338.6 242.308 1340.03 242.315 1341.48 242.317ZM1344.26 244.309C1343.66 243.886 1343.06 243.458 1342.46 243.029C1341.09 243.03 1339.72 243.031 1338.37 243.023C1339.01 243.418 1339.66 243.812 1340.32 244.2C1341.63 244.239 1342.94 244.276 1344.26 244.309ZM1347.08 246.242C1346.5 245.855 1345.94 245.457 1345.36 245.063C1344.1 245.035 1342.85 244.997 1341.6 244.96C1342.24 245.33 1342.88 245.69 1343.52 246.055C1344.7 246.122 1345.89 246.183 1347.08 246.242ZM1349.96 248.116C1349.4 247.757 1348.84 247.397 1348.29 247.033C1347.18 246.981 1346.07 246.935 1344.97 246.876C1345.56 247.208 1346.17 247.528 1346.77 247.854C1347.83 247.942 1348.89 248.033 1349.96 248.116ZM1352.83 249.911C1352.32 249.596 1351.8 249.288 1351.29 248.969C1350.33 248.898 1349.37 248.819 1348.42 248.74C1348.97 249.034 1349.53 249.328 1350.09 249.618C1351 249.722 1351.92 249.813 1352.83 249.911ZM1355.7 251.637C1355.25 251.373 1354.8 251.105 1354.35 250.837C1353.57 250.757 1352.8 250.674 1352.02 250.592C1352.49 250.827 1352.95 251.068 1353.43 251.301C1354.18 251.412 1354.94 251.53 1355.7 251.637ZM1358.49 253.236C1358.16 253.047 1357.83 252.853 1357.49 252.662C1356.94 252.588 1356.37 252.521 1355.82 252.443C1356.18 252.614 1356.54 252.785 1356.9 252.953C1357.43 253.05 1357.96 253.141 1358.49 253.236ZM1361.26 254.742L1360.7 254.442C1360.41 254.394 1360.13 254.34 1359.84 254.29L1360.44 254.553C1360.71 254.614 1360.98 254.68 1361.26 254.742ZM496.911 166.433C498.27 165.814 499.588 165.227 500.937 164.616L500.066 164.953L495.746 166.862L496.911 166.433ZM481.651 173.415C483.738 172.462 485.841 171.495 487.926 170.543C486.958 170.906 486.005 171.257 485.034 171.623C482.896 172.578 480.721 173.563 478.565 174.533C479.592 174.161 480.627 173.783 481.651 173.415ZM466.051 180.594C468.512 179.45 470.966 178.312 473.395 177.192C472.115 177.658 470.856 178.107 469.57 178.577C466.916 179.776 464.295 180.948 461.618 182.165C463.085 181.651 464.591 181.103 466.051 180.594ZM449.866 188.121C452.904 186.705 455.937 185.296 458.971 183.886C457.328 184.466 455.671 185.055 454.019 185.643C451.095 186.977 448.145 188.331 445.212 189.672C446.782 189.139 448.303 188.648 449.866 188.121ZM433.617 195.759C437.079 194.122 440.552 192.473 443.964 190.873C442.092 191.511 440.164 192.196 438.282 192.842C434.957 194.375 431.583 195.947 428.21 197.517C430.022 196.923 431.815 196.345 433.617 195.759ZM417.142 203.546C420.924 201.748 424.638 200.003 428.391 198.227C426.488 198.852 424.624 199.441 422.71 200.075C418.875 201.859 415.076 203.615 411.215 205.421C413.187 204.799 415.181 204.158 417.142 203.546ZM400.592 211.477C404.56 209.571 408.532 207.664 412.459 205.79C410.404 206.438 408.347 207.087 406.28 207.745C402.399 209.569 398.466 211.432 394.54 213.291C396.565 212.678 398.578 212.079 400.592 211.477ZM383.605 219.663C387.911 217.576 392.189 215.512 396.445 213.464C394.298 214.112 392.101 214.804 389.939 215.463C385.771 217.44 381.589 219.427 377.371 221.441C379.46 220.837 381.528 220.255 383.605 219.663ZM366.573 227.941C371.023 225.774 375.453 223.621 379.871 221.479C377.743 222.09 375.647 222.67 373.507 223.293C369.052 225.424 364.581 227.567 360.092 229.724C362.248 229.133 364.428 228.52 366.573 227.941ZM349.206 236.465C353.838 234.18 358.483 231.887 363.047 229.654C360.857 230.251 358.654 230.861 356.451 231.47C351.967 233.633 347.407 235.856 342.856 238.071C344.988 237.52 347.084 237.005 349.206 236.465ZM331.619 245.137C336.497 242.72 341.302 240.36 346.136 237.978C343.942 238.541 341.743 239.11 339.537 239.685C334.731 242.024 329.95 244.342 325.097 246.717C327.272 246.19 329.454 245.653 331.619 245.137ZM313.884 253.986C318.869 251.492 323.856 248.998 328.779 246.554C326.586 247.082 324.39 247.612 322.188 248.151C317.328 250.535 312.408 252.965 307.487 255.397C309.63 254.913 311.749 254.459 313.884 253.986ZM295.937 262.986C301.086 260.394 306.204 257.824 311.292 255.279C309.108 255.766 306.92 256.257 304.728 256.756C299.667 259.258 294.572 261.788 289.45 264.338C291.61 263.889 293.783 263.425 295.937 262.986ZM277.678 272.21C282.99 269.518 288.272 266.851 293.532 264.201C291.355 264.649 289.166 265.112 286.983 265.57C281.765 268.17 276.538 270.777 271.272 273.415C273.408 273.011 275.545 272.606 277.678 272.21ZM259.292 281.579C264.699 278.813 270.119 276.039 275.447 273.336C273.3 273.738 271.153 274.138 269 274.549C263.72 277.199 258.343 279.924 252.977 282.641C255.084 282.284 257.189 281.929 259.292 281.579ZM278.18 272.823C272.781 275.559 267.307 278.357 261.833 281.151C456.722 248.971 638.428 248.802 819.923 248.632C930.136 248.528 1040.27 248.422 1153.23 241.143C1055.85 245.033 961.145 243.035 865.89 241.022C680.072 237.097 492.145 233.138 278.18 272.823ZM296.43 263.601C291.126 266.271 285.775 268.978 280.409 271.696C493.559 232.452 680.902 236.414 866.157 240.327C966.597 242.448 1066.42 244.551 1169.41 239.747C1079.68 241.589 992.912 237.64 905.316 233.649C718.43 225.131 527.765 216.437 296.43 263.601ZM450.215 188.779C446.573 190.482 442.913 192.198 439.225 193.936C799.117 78.1379 960.765 135.866 1112.55 190.124C1156.31 205.768 1199.26 221.115 1245.93 231.911M1330.9 225.965C1330.33 225.339 1329.76 224.707 1329.2 224.073C1326.99 224.387 1324.77 224.693 1322.56 224.999C1323.18 225.595 1323.81 226.189 1324.44 226.778C1326.59 226.511 1328.74 226.24 1330.9 225.965ZM1333.19 228.431C1332.61 227.817 1332.03 227.206 1331.46 226.585C1329.34 226.857 1327.22 227.126 1325.1 227.389C1325.73 227.971 1326.36 228.555 1326.99 229.129C1329.06 228.902 1331.12 228.666 1333.19 228.431ZM1335.52 230.86C1334.93 230.261 1334.35 229.663 1333.77 229.056C1331.75 229.288 1329.72 229.523 1327.69 229.747C1328.32 230.311 1328.96 230.876 1329.59 231.432C1331.57 231.244 1333.54 231.055 1335.52 230.86ZM1337.88 233.244C1337.29 232.666 1336.71 232.08 1336.14 231.493C1334.19 231.686 1332.25 231.871 1330.31 232.057C1330.95 232.608 1331.6 233.149 1332.24 233.693C1334.12 233.548 1335.99 233.4 1337.88 233.244ZM1340.28 235.578C1339.69 235.019 1339.11 234.45 1338.53 233.882C1336.68 234.036 1334.84 234.185 1332.99 234.329C1333.64 234.866 1334.29 235.395 1334.95 235.925C1336.72 235.815 1338.5 235.695 1340.28 235.578ZM1342.75 237.875C1342.15 237.329 1341.56 236.783 1340.97 236.229C1339.23 236.345 1337.48 236.463 1335.75 236.571C1336.38 237.081 1337.02 237.592 1337.67 238.095C1339.36 238.025 1341.05 237.956 1342.75 237.875ZM1345.24 240.105C1344.64 239.584 1344.05 239.066 1343.47 238.538C1341.82 238.617 1340.18 238.688 1338.53 238.758C1339.17 239.251 1339.81 239.748 1340.46 240.234C1342.05 240.197 1343.64 240.15 1345.24 240.105ZM1347.78 242.305C1347.19 241.804 1346.6 241.297 1346.02 240.789C1344.47 240.834 1342.93 240.882 1341.39 240.919C1342.03 241.388 1342.67 241.852 1343.31 242.313C1344.8 242.314 1346.28 242.316 1347.78 242.305ZM1350.34 244.427C1349.76 243.96 1349.2 243.48 1348.63 243.006C1347.17 243.019 1345.73 243.023 1344.29 243.025C1344.93 243.478 1345.58 243.917 1346.23 244.363C1347.59 244.391 1348.97 244.406 1350.34 244.427ZM1352.99 246.512C1352.41 246.064 1351.83 245.617 1351.26 245.162C1349.94 245.145 1348.62 245.125 1347.3 245.102C1347.92 245.518 1348.54 245.931 1349.16 246.341C1350.43 246.401 1351.71 246.461 1352.99 246.512ZM1355.64 248.518C1355.08 248.104 1354.52 247.695 1353.96 247.275C1352.77 247.231 1351.57 247.183 1350.38 247.131C1350.97 247.515 1351.56 247.905 1352.16 248.283C1353.32 248.366 1354.48 248.442 1355.64 248.518ZM1358.32 250.469C1357.8 250.097 1357.28 249.718 1356.75 249.339C1355.68 249.273 1354.61 249.195 1353.54 249.122C1354.11 249.471 1354.68 249.823 1355.25 250.167C1356.27 250.272 1357.3 250.372 1358.32 250.469ZM1361.03 252.342C1360.54 252.013 1360.06 251.675 1359.58 251.342C1358.66 251.258 1357.74 251.182 1356.82 251.093C1357.34 251.399 1357.87 251.697 1358.4 251.997C1359.27 252.112 1360.15 252.231 1361.03 252.342ZM1363.75 254.125C1363.33 253.854 1362.9 253.582 1362.49 253.307C1361.71 253.214 1360.95 253.114 1360.18 253.014C1360.66 253.279 1361.15 253.531 1361.63 253.792C1362.33 253.909 1363.05 254.012 1363.75 254.125ZM1366.44 255.819C1366.09 255.609 1365.74 255.405 1365.4 255.192C1364.85 255.108 1364.31 255.02 1363.77 254.935C1364.13 255.121 1364.48 255.304 1364.84 255.488C1365.38 255.596 1365.9 255.713 1366.44 255.819ZM1368.93 257.332C1368.77 257.236 1368.61 257.134 1368.45 257.038C1368.18 256.987 1367.92 256.94 1367.65 256.889C1367.82 256.974 1367.99 257.063 1368.17 257.147L1368.93 257.332ZM234.377 292.061C236.461 291.75 238.544 291.433 240.625 291.128C246.221 288.25 251.715 285.453 257.245 282.626C255.131 282.98 253.015 283.33 250.897 283.693C245.399 286.475 239.935 289.232 234.377 292.061ZM225.742 293.365C227.814 293.047 229.886 292.734 231.957 292.423C237.446 289.626 242.859 286.891 248.295 284.137C246.161 284.505 244.021 284.888 241.883 285.263C236.521 287.949 231.159 290.636 225.742 293.365ZM217.036 294.721C219.107 294.394 221.177 294.074 223.247 293.754C228.593 291.059 233.909 288.387 239.2 285.735C237.075 286.111 234.952 286.487 232.823 286.871C227.6 289.457 222.317 292.089 217.036 294.721ZM208.25 296.131C210.335 295.792 212.422 295.448 214.506 295.116C219.691 292.531 224.905 289.922 230.034 287.382C227.909 287.769 225.785 288.157 223.657 288.552C218.574 291.036 213.392 293.599 208.25 296.131ZM199.407 297.579C201.483 297.233 203.558 296.894 205.633 296.555C210.725 294.047 215.832 291.524 220.865 289.065C218.746 289.46 216.619 289.875 214.498 290.279C209.494 292.69 204.471 295.118 199.407 297.579ZM190.579 299.068C192.612 298.721 194.646 298.381 196.678 298.039C201.681 295.606 206.618 293.226 211.564 290.84C209.447 291.246 207.33 291.647 205.21 292.062C200.39 294.35 195.46 296.731 190.579 299.068ZM181.595 300.63C183.664 300.266 185.736 299.897 187.804 299.54C192.546 297.267 197.377 294.918 202.065 292.688C199.993 293.097 197.92 293.511 195.845 293.928C191.133 296.129 186.362 298.382 181.595 300.63ZM172.572 302.231C174.622 301.861 176.673 301.497 178.723 301.134C183.363 298.943 188.05 296.713 192.636 294.567C190.563 294.987 188.485 295.422 186.408 295.85C181.818 297.957 177.214 300.079 172.572 302.231ZM163.472 303.891C165.508 303.514 167.545 303.146 169.581 302.776C174.078 300.688 178.58 298.596 183.027 296.55C180.995 296.973 178.966 297.386 176.931 297.816C172.453 299.835 168 301.83 163.472 303.891ZM154.274 305.622C156.31 305.235 158.344 304.845 160.379 304.465C164.726 302.483 169.04 300.53 173.341 298.59C171.312 299.022 169.282 299.461 167.249 299.901C162.919 301.813 158.648 303.672 154.274 305.622ZM145.159 307.373C147.128 306.989 149.097 306.607 151.065 306.23C155.266 304.354 159.401 302.534 163.559 300.696C161.544 301.138 159.521 301.596 157.504 302.044C153.39 303.82 149.309 305.565 145.159 307.373ZM136.023 309.169C137.899 308.793 139.775 308.431 141.651 308.062C145.657 306.314 149.572 304.646 153.541 302.931C151.6 303.367 149.663 303.793 147.719 304.236C143.832 305.869 139.943 307.505 136.023 309.169ZM126.759 311.052C128.601 310.674 130.443 310.297 132.285 309.926C136.019 308.337 139.689 306.805 143.399 305.239C141.49 305.678 139.583 306.121 137.673 306.568C134.055 308.043 130.407 309.549 126.759 311.052ZM117.504 312.973C119.281 312.599 121.059 312.22 122.836 311.852C126.278 310.427 129.692 309.032 133.114 307.629C131.256 308.068 129.39 308.527 127.529 308.973C124.212 310.28 120.846 311.639 117.504 312.973ZM108.297 314.921C109.941 314.567 111.583 314.225 113.226 313.876C116.313 312.64 119.393 311.409 122.46 310.192C120.786 310.598 119.113 311.001 117.436 311.412C114.408 312.563 111.343 313.75 108.297 314.921ZM98.9912 316.958C100.505 316.623 102.02 316.294 103.534 315.963C106.184 314.941 108.846 313.905 111.482 312.896C110.058 313.251 108.635 313.603 107.209 313.961C104.473 314.956 101.742 315.947 98.9912 316.958ZM90.0044 318.966C91.2572 318.683 92.5102 318.395 93.763 318.115C95.8538 317.342 97.9658 316.544 100.048 315.78C98.9772 316.054 97.9043 316.333 96.8329 316.609C94.5551 317.396 92.2903 318.168 90.0044 318.966ZM81.8063 320.826C82.4715 320.671 83.1371 320.523 83.802 320.371C85.1525 319.896 86.5166 319.405 87.8616 318.934C87.3603 319.066 86.8574 319.204 86.355 319.337L81.8063 320.826ZM1319.45 221.97C1321.78 221.619 1324.11 221.266 1326.45 220.907C1308.78 200.193 1294.7 175.886 1280.36 151.11C1252.46 102.901 1223.53 52.9333 1165.1 24.4636C1079.43 -17.2727 930.103 -12.8199 627.213 110.898C918.265 -3.52241 1063.28 -3.69437 1149.57 38.7195C1205.14 66.0323 1236.3 110.985 1266.43 154.458C1283.09 178.503 1299.45 202.089 1319.45 221.97ZM1311.12 223.217C1313.43 222.876 1315.73 222.527 1318.04 222.18C1298.12 202.304 1281.8 178.775 1265.18 154.788C1235.1 111.38 1203.99 66.4916 1148.59 39.2659C1059.8 -4.37586 908.392 -2.63292 598.377 123.201C897.468 6.45921 1044.82 9.38563 1134.61 53.9387C1186.66 79.7648 1219.31 119.563 1250.97 158.149C1270.04 181.393 1288.75 204.194 1311.12 223.217ZM1302.84 224.414C1305.11 224.088 1307.39 223.761 1309.67 223.428C1287.4 204.416 1268.75 181.683 1249.74 158.512C1218.13 119.977 1185.52 80.2317 1133.62 54.4828C1041.22 8.63413 887.454 7.14123 568.748 135.741C877.753 15.9468 1027.75 22.665 1121.64 69.7321C1169.59 93.7677 1202.86 128.307 1235.2 161.891C1256.79 184.305 1277.98 206.283 1302.84 224.414ZM1294.58 225.585C1296.83 225.27 1299.09 224.952 1301.34 224.63C1276.62 206.514 1255.51 184.614 1234.01 162.284C1201.7 128.741 1168.47 94.2413 1120.66 70.2734C1024.54 22.0888 869.301 16.3896 543.441 146.452L541.988 147.094C860.866 24.7976 1012.99 36.4705 1111.39 86.3533C1154.44 108.17 1187.17 137.286 1219.11 165.688C1243.34 187.241 1267.12 208.376 1294.58 225.585ZM1286.38 226.725C1288.6 226.421 1290.82 226.109 1293.04 225.8C1265.74 208.61 1242.07 187.568 1217.95 166.114C1186.05 137.744 1153.35 108.661 1110.4 86.8925C1010.86 36.438 856.058 25.2816 527.967 153.293C526.533 153.931 525.139 154.538 523.696 155.182C849.509 32.9617 1002.04 51.3995 1105.11 104.276C1142.09 123.248 1172.68 146.641 1202.64 169.549C1229.67 190.211 1256.17 210.475 1286.38 226.725ZM1278.22 227.819C1280.39 227.53 1282.57 227.241 1284.75 226.945C1254.76 210.715 1228.39 190.556 1201.52 170.005C1171.58 147.118 1141.02 123.747 1104.11 104.813C1000.24 51.5212 845.895 33.3439 513.173 159.913C511.06 160.862 508.931 161.824 506.816 162.774C932.876 6.98437 1064.05 93.3187 1185.75 173.477C1215.71 193.214 1245.11 212.566 1278.22 227.819ZM1270.08 228.892C1272.22 228.613 1274.36 228.332 1276.5 228.049C1243.66 212.817 1214.44 193.58 1184.67 173.965C1062.33 93.3878 930.369 6.57917 497.084 167.16C494.788 168.202 492.443 169.283 490.118 170.349C899.424 24.8353 1038.72 103.917 1168.37 177.489C1201.45 196.264 1233.91 214.677 1270.08 228.892ZM1262 229.929C1264.09 229.663 1266.18 229.394 1268.26 229.124C1232.42 214.93 1200.19 196.647 1167.34 178.005C1037.12 104.108 897.057 24.7086 481.899 174.112C478.872 175.5 475.888 176.856 472.842 178.258C865.818 42.6692 1013.06 114.514 1150.44 181.59C1186.85 199.368 1222.57 216.8 1262 229.929ZM1253.94 230.933C1255.97 230.683 1258.01 230.435 1260.04 230.179C1221 217.066 1185.57 199.768 1149.46 182.136C1011.61 114.828 863.829 42.674 466.369 181.263C462.965 182.839 459.521 184.447 456.086 186.047C832.432 60.4672 987.121 125.173 1131.87 185.795C1171.82 202.528 1211.02 218.94 1253.94 230.933ZM1237.94 232.858C1239.83 232.636 1241.7 232.414 1243.59 232.19C1197.5 221.394 1155 206.201 1111.7 190.723C959.442 136.297 797.221 78.3932 434.01 196.401C430.121 198.235 426.226 200.074 422.315 201.925C765.858 95.7101 933.935 146.605 1092.37 194.593C1140.24 209.094 1187.24 223.324 1237.94 232.858ZM1229.99 233.775C1231.79 233.572 1233.59 233.37 1235.38 233.161C1185.36 223.613 1138.9 209.547 1091.58 195.213C932.666 147.079 764.02 96.0294 417.571 204.172C413.463 206.128 409.279 208.142 405.108 210.147C732.499 113.232 906.509 157.393 1071.16 199.228C1123.5 212.527 1174.9 225.581 1229.99 233.775ZM1222.09 234.67C1223.75 234.486 1225.41 234.294 1227.07 234.107C1172.8 225.878 1122.08 212.99 1070.43 199.868C905.328 157.917 730.82 113.6 401.023 212.106C396.622 214.22 392.234 216.323 387.788 218.471C699.137 130.604 878.367 168.249 1048.72 204.059C1105.95 216.089 1162.18 227.906 1222.09 234.67ZM1214.19 235.53C1215.72 235.363 1217.24 235.2 1218.77 235.032C1159.86 228.206 1104.44 216.565 1048.07 204.714C877.246 168.806 697.482 131.057 384.058 220.284C379.548 222.469 374.999 224.684 370.442 226.905C665.735 147.873 849.379 179.197 1024.8 209.125C1087.41 219.805 1148.97 230.302 1214.19 235.53ZM1206.34 236.367C1207.68 236.228 1209.01 236.09 1210.35 235.948C1146.33 230.622 1085.78 220.294 1024.21 209.79C848.314 179.781 664.141 148.358 367.051 228.553C362.322 230.862 357.544 233.21 352.751 235.568C632.077 165.057 819.288 190.252 999.061 214.472C1067.66 223.714 1135.18 232.805 1206.34 236.367ZM1198.52 237.182C1199.59 237.073 1200.67 236.958 1201.74 236.848C1132.08 233.134 1065.83 224.214 998.545 215.149C818.284 190.863 630.539 165.595 349.683 237.08C344.79 239.489 339.91 241.887 334.975 244.328C598.235 182.073 787.852 201.449 971.064 220.163C1046.41 227.86 1120.67 235.442 1198.52 237.182ZM1190.67 237.971L1192.89 237.75C1116.92 235.787 1044.28 228.373 970.613 220.848C786.89 202.082 596.7 182.668 332.111 245.746C327.117 248.223 322.033 250.772 316.964 253.307C563.965 199.024 754.694 212.833 940.207 226.287C1023.21 232.306 1105.17 238.249 1190.67 237.971ZM1182.93 238.735L1183.54 238.678C1100.46 238.623 1020.63 232.838 939.819 226.978C753.783 213.488 562.499 199.639 314.374 254.601C309.191 257.19 304 259.789 298.762 262.423C529.155 215.81 719.282 224.462 905.642 232.955C997.526 237.141 1088.5 241.287 1182.93 238.735ZM764.04 258.217C886.828 255.687 1010.51 253.137 1136.72 242.85C1029.45 249.13 924.611 249.231 819.708 249.328C637.641 249.5 455.358 249.68 259.787 282.198C254.201 285.05 248.646 287.878 242.988 290.787C417.966 265.349 590.103 261.799 764.04 258.217ZM1206.17 237.075L1204.09 237.293L1204.85 237.309C1205.59 237.245 1206.34 237.185 1207.09 237.12L1206.17 237.075ZM1214 236.242C1212.94 236.355 1211.88 236.474 1210.83 236.586C1211.34 236.611 1211.85 236.638 1212.36 236.661L1215.63 236.373L1214 236.242ZM1221.84 235.388C1220.51 235.536 1219.18 235.678 1217.85 235.823C1218.57 235.879 1219.3 235.93 1220.03 235.983C1221.33 235.866 1222.64 235.74 1223.94 235.62C1223.24 235.543 1222.54 235.467 1221.84 235.388ZM1229.71 234.498L1225.19 235.012L1227.63 235.276C1229.13 235.136 1230.63 234.999 1232.13 234.854C1231.32 234.735 1230.51 234.618 1229.71 234.498ZM1237.62 233.587C1235.96 233.781 1234.3 233.974 1232.64 234.165C1233.51 234.292 1234.38 234.422 1235.26 234.546C1236.89 234.385 1238.53 234.225 1240.17 234.062C1239.32 233.906 1238.47 233.746 1237.62 233.587ZM1245.57 232.646C1243.78 232.86 1241.99 233.07 1240.2 233.282C1241.13 233.453 1242.06 233.617 1242.98 233.785C1244.72 233.609 1246.46 233.427 1248.2 233.247C1247.33 233.047 1246.44 232.848 1245.57 232.646ZM1253.53 231.675C1251.66 231.905 1249.79 232.141 1247.92 232.368C1248.83 232.575 1249.74 232.789 1250.66 232.994C1252.51 232.803 1254.36 232.612 1256.21 232.414C1255.32 232.17 1254.42 231.923 1253.53 231.675ZM1261.56 230.679C1259.59 230.928 1257.62 231.171 1255.65 231.413C1256.58 231.669 1257.52 231.918 1258.45 232.17C1260.36 231.964 1262.27 231.756 1264.18 231.545C1263.3 231.259 1262.43 230.969 1261.56 230.679ZM1269.58 229.648C1267.56 229.909 1265.53 230.17 1263.51 230.428C1264.42 230.727 1265.32 231.028 1266.23 231.322C1268.21 231.101 1270.19 230.873 1272.17 230.648C1271.31 230.317 1270.44 229.985 1269.58 229.648ZM1277.67 228.585C1275.58 228.863 1273.5 229.14 1271.41 229.412C1272.29 229.756 1273.18 230.093 1274.07 230.431C1276.1 230.2 1278.13 229.968 1280.16 229.728C1279.33 229.352 1278.5 228.967 1277.67 228.585ZM1285.79 227.499C1283.65 227.79 1281.52 228.073 1279.38 228.356C1280.23 228.745 1281.09 229.132 1281.94 229.515C1284.02 229.267 1286.1 229.019 1288.18 228.766C1287.38 228.345 1286.58 227.924 1285.79 227.499ZM1293.93 226.368C1291.76 226.672 1289.59 226.975 1287.42 227.274C1288.23 227.706 1289.04 228.138 1289.85 228.566C1291.97 228.305 1294.09 228.038 1296.21 227.773C1295.45 227.308 1294.69 226.84 1293.93 226.368ZM1302.14 225.21C1299.92 225.527 1297.7 225.842 1295.48 226.152C1296.25 226.632 1297.03 227.102 1297.81 227.572C1299.96 227.303 1302.11 227.032 1304.27 226.754C1303.55 226.244 1302.85 225.725 1302.14 225.21ZM1310.37 224.02C1308.12 224.349 1305.88 224.671 1303.63 224.993C1304.35 225.516 1305.07 226.037 1305.8 226.552C1307.99 226.267 1310.18 225.981 1312.37 225.689C1311.7 225.135 1311.03 224.58 1310.37 224.02ZM1318.64 222.785C1316.37 223.127 1314.1 223.472 1311.83 223.808C1312.5 224.373 1313.17 224.936 1313.84 225.495C1316.06 225.198 1318.28 224.892 1320.49 224.588C1319.87 223.99 1319.26 223.391 1318.64 222.785ZM1326.98 221.521C1324.67 221.876 1322.36 222.227 1320.05 222.574C1320.67 223.186 1321.3 223.788 1321.93 224.391C1324.17 224.083 1326.41 223.774 1328.65 223.457C1328.09 222.816 1327.53 222.169 1326.98 221.521ZM1572.92 168.946C1489.85 192.089 1408.46 208.924 1328.36 221.306C1328.92 221.959 1329.49 222.609 1330.06 223.256C1408.77 212.086 1489.45 195.973 1572.99 172.699L1573.44 173.306C1489.93 196.572 1409.29 212.692 1330.61 223.871C1331.18 224.511 1331.74 225.15 1332.32 225.781C1409.59 215.839 1489.52 200.463 1573.51 177.062L1573.97 177.669C1490.01 201.06 1410.12 216.442 1332.9 226.399C1333.47 227.025 1334.05 227.647 1334.64 228.265C1410.43 219.572 1489.58 204.953 1574.03 181.422L1574.49 182.029C1490.08 205.546 1410.97 220.179 1335.22 228.892C1335.81 229.506 1336.41 230.11 1337.01 230.716C1411.29 223.299 1489.64 209.442 1574.55 185.783L1575.01 186.39C1490.15 210.032 1411.85 223.905 1337.63 231.35C1338.21 231.942 1338.8 232.528 1339.4 233.113C1412.15 226.999 1489.68 213.937 1575.08 190.144L1575.53 190.75C1490.21 214.522 1412.74 227.601 1340.06 233.752C1340.65 234.329 1341.24 234.907 1341.84 235.476C1413.02 230.689 1489.71 218.435 1575.6 194.507L1576.05 195.113C1490.27 219.013 1413.65 231.293 1342.55 236.126C1343.14 236.684 1343.74 237.243 1344.35 237.792C1413.92 234.358 1489.74 222.932 1576.12 198.867L1576.57 199.474C1490.32 223.506 1414.57 234.963 1345.08 238.454C1345.68 238.995 1346.29 239.525 1346.9 240.058C1414.84 238.006 1489.77 227.431 1576.64 203.227L1577.1 203.834C1490.37 227.996 1415.53 238.615 1347.68 240.741C1348.29 241.261 1348.9 241.772 1349.51 242.283C1415.77 241.641 1489.79 231.933 1577.16 207.59L1577.62 208.196C1490.43 232.488 1416.52 242.247 1350.36 242.983C1350.96 243.477 1351.56 243.97 1352.17 244.456C1416.71 245.253 1489.8 236.438 1577.69 211.95L1578.14 212.557C1490.49 236.976 1417.54 245.868 1353.1 245.191C1353.69 245.653 1354.27 246.121 1354.87 246.576C1417.67 248.845 1489.79 240.945 1578.21 216.311L1578.66 216.918C1490.54 241.469 1418.58 249.457 1355.89 247.341C1356.48 247.783 1357.08 248.222 1357.68 248.657C1418.68 252.42 1489.8 245.448 1578.73 220.673L1579.18 221.278C1490.61 245.955 1419.66 253.039 1358.78 249.463C1359.35 249.871 1359.93 250.265 1360.51 250.666C1419.69 255.963 1489.79 249.961 1579.25 225.034L1579.71 225.641C1490.7 250.438 1420.81 256.591 1361.77 251.538C1362.32 251.909 1362.87 252.274 1363.42 252.638C1420.73 259.495 1489.77 254.471 1579.77 229.395L1580.23 230.001C1490.81 254.913 1422.03 260.121 1364.87 253.578C1365.37 253.897 1365.86 254.223 1366.36 254.538C1421.76 262.999 1489.73 258.988 1580.29 233.756L1580.75 234.362C1490.98 259.373 1423.34 263.642 1368.12 255.604C1368.55 255.865 1368.97 256.129 1369.41 256.386C1422.86 266.476 1489.7 263.505 1580.82 238.118L1581.27 238.724C1491.2 263.818 1424.76 267.137 1371.53 257.612C1371.87 257.809 1372.22 258.005 1372.57 258.2C1424.01 269.937 1489.69 268.012 1581.34 242.479L1581.79 243.085C1491.54 268.231 1426.37 270.608 1375.17 259.625C1375.35 259.723 1375.54 259.819 1375.72 259.916C1425.13 273.364 1489.63 272.537 1581.86 246.839L1582.31 247.446C1492.74 272.401 1429.21 274.05 1380.25 261.985C1427.43 276.768 1490.4 276.828 1582.38 251.201L1582.84 251.806C1495.15 276.236 1433.7 277.489 1387.15 264.934C1431.9 280.219 1492.8 280.665 1582.9 255.562L1583.36 256.169C1497.63 280.053 1438.2 280.966 1393.94 268.031C1436.39 283.703 1495.28 284.482 1583.43 259.923L1583.88 260.529C1486.63 287.625 1424.78 284.133 1381.34 263.854C1378.88 262.927 1376.48 261.942 1374.12 260.927C1371.57 260.046 1369.05 259.133 1366.59 258.166C1363.98 257.343 1361.42 256.47 1358.89 255.566C1356.12 254.776 1353.39 253.952 1350.7 253.082C1347.89 252.359 1345.12 251.598 1342.38 250.803C1339.38 250.117 1336.42 249.392 1333.49 248.632C1330.46 248.018 1327.45 247.376 1324.47 246.696C1321.24 246.13 1318.05 245.52 1314.88 244.888C1311.51 244.381 1308.16 243.846 1304.85 243.278C1301.46 242.85 1298.09 242.397 1294.75 241.914C1291.14 241.546 1287.57 241.142 1284.01 240.72C1280.22 240.419 1276.44 240.091 1272.69 239.737C1268.78 239.513 1264.89 239.269 1261.02 238.996C1257.02 238.851 1253.04 238.688 1249.08 238.499C1244.91 238.433 1240.76 238.35 1236.63 238.242C1232.31 238.259 1228 238.258 1223.71 238.238C1219.21 238.341 1214.73 238.429 1210.26 238.496C1205.75 238.682 1201.25 238.848 1196.76 239.003C1191.92 239.288 1187.08 239.553 1182.26 239.806C1177.34 240.177 1172.42 240.533 1167.52 240.874C1030.54 253.417 896.681 256.178 763.872 258.914C589.36 262.508 416.661 266.066 241.12 291.751C147.615 339.853 45.0826 395.024 -67.4734 458.07L-68.3568 457.64C43.5855 394.937 145.611 340.033 238.732 292.108C236.641 292.416 234.549 292.73 232.457 293.045C141.319 339.482 41.5098 392.759 -67.9951 453.71L-68.8788 453.277C39.9983 392.675 139.293 339.665 230.036 293.406C227.943 293.724 225.847 294.049 223.751 294.373C134.989 339.137 37.913 390.509 -68.5195 449.35L-69.3976 448.914C36.3738 390.437 132.912 339.339 221.256 294.761C219.174 295.086 217.091 295.403 215.008 295.734C128.629 338.814 34.2928 388.277 -69.0446 444.99L-69.9176 444.553C32.7266 388.22 126.502 339.037 212.435 296.15C210.335 296.487 208.235 296.83 206.134 297.172C122.176 338.547 30.6096 386.085 -69.5688 440.63L-70.4375 440.19C29.0273 386.033 120.023 338.774 203.515 297.597C201.406 297.944 199.297 298.3 197.186 298.653C115.677 338.306 26.8793 383.926 -70.0933 436.272L-70.9565 435.828C25.2543 383.893 113.45 338.557 194.458 299.114C192.416 299.459 190.375 299.798 188.332 300.149C109.209 338.097 23.228 381.728 -70.6177 431.912L-71.4763 431.464C21.5816 381.702 106.912 338.381 185.509 300.645C183.423 301.007 181.336 301.374 179.249 301.743C102.595 337.946 19.4445 379.609 -71.1408 427.553L-71.9958 427.102C17.7873 379.582 100.267 338.237 176.377 302.247C174.287 302.62 172.196 303.004 170.105 303.384C95.9345 337.831 15.6296 377.511 -71.6684 423.194L-72.5128 422.739C13.9365 377.5 93.5246 338.154 167.114 303.929C165.046 304.309 162.977 304.685 160.907 305.07C89.2291 337.749 11.7869 375.435 -72.1936 418.834L-73.0324 418.376C10.0488 375.442 86.72 338.11 157.772 305.664C155.709 306.052 153.647 306.44 151.584 306.835C82.4289 337.728 7.88919 373.395 -72.7197 414.475L-73.5485 414.013C6.1302 373.406 79.8663 338.104 148.362 307.45C146.296 307.849 144.228 308.262 142.162 308.668C75.5524 337.757 3.9458 371.384 -73.2474 410.115L-74.0654 409.65C2.13668 371.416 72.8771 338.174 138.772 309.335C136.782 309.73 134.793 310.127 132.803 310.529C68.7005 337.82 0.0404169 369.366 -73.7723 405.759L-74.583 405.286C-1.91272 369.458 65.7912 338.3 129.054 311.292C127.152 311.68 125.25 312.062 123.347 312.456C61.7725 337.931 -3.91623 367.382 -74.3033 401.4L-75.0979 400.92C-5.96007 367.505 58.6736 338.473 119.313 313.3C117.452 313.69 115.59 314.085 113.729 314.48C54.7241 338.117 -7.94602 365.443 -74.8298 397.042L-75.6139 396.558C-10.0597 365.587 51.4667 338.704 109.453 315.383C107.649 315.77 105.845 316.171 104.042 316.564C47.6204 338.348 -12.0175 363.536 -75.361 392.686L-76.1253 392.192C-14.2822 363.733 44.0365 339.04 99.281 317.606C97.6074 317.975 95.9337 318.343 94.2586 318.717C40.4408 338.628 -16.1363 361.662 -75.8932 388.327L-76.6387 387.826C-18.6112 361.933 36.4194 339.463 88.8438 319.943C87.3284 320.287 85.8124 320.626 84.2955 320.974C33.1254 338.988 -20.3377 359.841 -76.4254 383.972L-77.1504 383.46C-23.0934 360.203 28.5148 340.004 77.9978 322.436C76.7039 322.737 75.4092 323.04 74.1134 323.345C25.6454 339.438 -24.6311 358.071 -76.9608 379.616L-77.6568 379.093C-27.8367 358.581 20.1066 340.73 66.4189 325.17C65.6624 325.351 64.9043 325.538 64.1482 325.72C18.2925 339.9 -28.8546 356.289 -77.5016 375.262L-78.1605 374.726C-33.5241 357.317 9.84695 342.086 52.1207 328.732C9.52575 340.848 -33.8181 354.799 -78.0452 370.909L-78.6606 370.354C-40.743 356.543 -3.47494 344.318 33.2284 333.469C-3.83107 343.104 -41.0902 354.064 -78.5944 366.557L-79.1543 365.985C-34.569 351.132 9.66894 338.435 53.6322 327.565C60.7799 325.539 67.9112 323.556 75.0185 321.632C82.577 319.346 90.087 317.14 97.5775 314.969C105.312 312.506 113.01 310.096 120.652 307.762C128.744 305.066 136.789 302.428 144.759 299.882C152.917 297.072 160.987 294.36 169.014 291.695C177.161 288.808 185.246 285.988 193.259 283.243C201.82 280.124 210.31 277.076 218.707 274.121C227.587 270.814 236.351 267.62 245.043 264.493C253.469 261.299 261.81 258.184 270.063 255.151C278.47 251.908 286.801 248.735 295.033 245.65C305.027 241.723 314.848 237.948 324.573 234.257C333.265 230.81 341.857 227.446 350.346 224.174C358.93 220.725 367.416 217.36 375.806 214.077C385.764 210.027 395.606 206.075 405.299 202.246C414.564 198.442 423.711 194.735 432.729 191.134C442.087 187.257 451.332 183.472 460.434 179.804C469.978 175.817 479.411 171.92 488.686 168.149C497.977 164.243 507.165 160.419 516.203 156.712C525.33 152.847 534.347 149.069 543.229 145.396C552.381 141.49 561.393 137.694 570.294 133.983C912.111 -12.9634 1074.88 -20.5086 1166.07 23.9185C1224.72 52.4901 1253.68 102.53 1281.63 150.809C1295.99 175.631 1310.1 199.98 1327.83 220.692C1407.97 208.319 1489.38 191.488 1572.47 168.339L1572.92 168.946Z" fill="url(#paint0_linear_1_450)"/>
<defs>
<linearGradient id="paint0_linear_1_450" x1="417.621" y1="-209.485" x2="839.988" y2="618.685" gradientUnits="userSpaceOnUse">
<stop stop-color="#0A767B"/>
<stop offset="1" stop-color="#00A7D6"/>
</linearGradient>
</defs>
</svg>
