<svg width="1440" height="438" viewBox="0 0 1440 438" fill="none" xmlns="http://www.w3.org/2000/svg">
<path opacity="0.5" d="M99.0757 170.941L102.835 172.108C102.414 172.018 101.997 171.936 101.575 171.847C100.181 171.454 98.7863 171.059 97.3867 170.657C97.95 170.754 98.5118 170.845 99.0757 170.941ZM122.828 177.101C123.798 177.419 124.776 177.744 125.743 178.058L125.347 177.966L121.69 176.88L122.828 177.101ZM109.304 172.667C111.439 173.374 113.548 174.052 115.68 174.757C114.578 174.535 113.465 174.297 112.359 174.073C110.274 173.437 108.162 172.771 106.063 172.119C107.142 172.3 108.226 172.489 109.304 172.667ZM147.01 183.777C147.82 184.05 148.612 184.303 149.419 184.575L149.398 184.569C148.47 184.281 147.529 183.979 146.598 183.687L147.01 183.777ZM133.637 179.194C135.546 179.851 137.465 180.518 139.367 181.166C138.5 180.973 137.636 180.788 136.768 180.593C134.607 179.906 132.478 179.254 130.307 178.555C131.415 178.766 132.529 178.987 133.637 179.194ZM119.418 174.275C122.105 175.221 124.757 176.129 127.429 177.057C126.051 176.792 124.672 176.524 123.291 176.254C120.622 175.385 117.939 174.499 115.264 173.621C116.65 173.842 118.034 174.058 119.418 174.275ZM1192.58 96.9694L1191.64 97.2141C1190.93 97.2419 1190.22 97.2728 1189.51 97.3025L1190.38 97.1119C1191.11 97.0632 1191.85 97.0178 1192.58 96.9694ZM172.302 191.087L173.142 191.376C172.761 191.253 172.386 191.139 172.005 191.016L172.302 191.087ZM158.105 186.144C159.878 186.776 161.629 187.388 163.387 188.004C162.698 187.838 162.013 187.679 161.321 187.512C159.453 186.898 157.572 186.268 155.704 185.652C156.508 185.821 157.302 185.978 158.105 186.144ZM144.015 181.088C146.581 182.008 149.151 182.936 151.709 183.849C150.301 183.548 148.882 183.233 147.469 182.928C144.951 182.079 142.408 181.205 139.864 180.331C141.249 180.584 142.634 180.838 144.015 181.088ZM129.566 175.83C132.635 176.966 135.687 178.085 138.722 179.188C137.177 178.903 135.639 178.633 134.091 178.344C130.95 177.258 127.826 176.193 124.681 175.105C126.312 175.354 127.938 175.586 129.566 175.83ZM1200.7 96.4484C1200.16 96.6135 1199.62 96.7849 1199.08 96.9515L1195.94 97.0601C1196.47 96.9241 1196.99 96.7834 1197.52 96.6489C1198.58 96.5818 1199.64 96.5132 1200.7 96.4484ZM1205.49 95.0104L1204.43 95.3276L1202.29 95.4514L1203.22 95.2174C1203.98 95.1484 1204.73 95.0764 1205.49 95.0104ZM1209.93 93.6983L1209.78 93.741L1209.11 93.7978L1209.93 93.6983ZM183.421 193.633C185.079 194.225 186.75 194.829 188.413 195.427L185.944 194.792C184.328 194.244 182.682 193.664 181.05 193.101C181.842 193.281 182.629 193.454 183.421 193.633ZM169.067 188.389C171.491 189.295 173.921 190.207 176.311 191.079C175.14 190.809 173.951 190.514 172.778 190.24C170.193 189.344 167.624 188.462 165.038 187.565C166.379 187.836 167.729 188.12 169.067 188.389ZM154.357 182.911L163.429 186.29C161.809 185.957 160.195 185.633 158.571 185.295C155.649 184.262 152.687 183.187 149.735 182.123C151.282 182.395 152.815 182.645 154.357 182.911ZM139.613 177.303C143.005 178.616 146.405 179.934 149.745 181.194C147.998 180.887 146.237 180.554 144.485 180.239C141.022 178.986 137.592 177.767 134.111 176.496C135.944 176.763 137.783 177.043 139.613 177.303ZM1208.6 95.9926C1207.92 96.2323 1207.24 96.4682 1206.56 96.7106C1205.28 96.7484 1204.01 96.7834 1202.73 96.8242C1203.41 96.6176 1204.1 96.4179 1204.78 96.2121C1206.05 96.1397 1207.33 96.0631 1208.6 95.9926ZM1213.25 94.361C1212.72 94.5443 1212.19 94.7323 1211.65 94.9179C1210.62 94.9735 1209.58 95.031 1208.55 95.0897L1210.15 94.6198C1211.19 94.5333 1212.22 94.4453 1213.25 94.361ZM1217.83 92.8073L1216.77 93.1655C1216.06 93.2215 1215.34 93.2768 1214.62 93.3355C1214.94 93.244 1215.26 93.1514 1215.58 93.0603C1216.33 92.9776 1217.08 92.8903 1217.83 92.8073ZM1222.13 91.3769L1221.9 91.4535L1221.05 91.5419L1221.11 91.5252L1222.13 91.3769ZM209.153 201.552C210.638 202.103 212.135 202.667 213.609 203.207C213.128 203.078 212.641 202.941 212.159 202.809C210.44 202.212 208.737 201.631 207.015 201.031L209.153 201.552ZM194.61 196.146C196.968 197.027 199.306 197.889 201.66 198.767C200.502 198.481 199.359 198.213 198.198 197.925C195.815 197.08 193.4 196.202 190.997 195.338C192.198 195.602 193.412 195.885 194.61 196.146ZM179.742 190.477C182.62 191.59 185.508 192.711 188.345 193.786C186.863 193.457 185.377 193.12 183.89 192.784C180.905 191.704 177.955 190.657 174.951 189.556C176.554 189.87 178.145 190.169 179.742 190.477ZM164.634 184.665C168.057 185.991 171.446 187.284 174.856 188.597C173.086 188.249 171.314 187.897 169.539 187.541C166.19 186.305 162.811 185.04 159.436 183.779C161.167 184.07 162.907 184.38 164.634 184.665ZM149.404 178.638C153.088 180.11 156.788 181.597 160.412 183.013C158.553 182.7 156.688 182.381 154.824 182.06C151.156 180.681 147.477 179.289 143.772 177.874C145.652 178.134 147.527 178.385 149.404 178.638ZM1216.34 95.5867C1215.6 95.8886 1214.86 96.1946 1214.12 96.4987C1212.65 96.5365 1211.19 96.5795 1209.72 96.6215C1210.49 96.3482 1211.27 96.0742 1212.04 95.8039C1213.47 95.7296 1214.91 95.6591 1216.34 95.5867ZM1220.9 93.762C1220.23 94.0253 1219.57 94.2875 1218.91 94.5512C1217.65 94.6137 1216.38 94.6796 1215.12 94.7441C1215.81 94.5085 1216.49 94.2772 1217.18 94.0443C1218.42 93.9479 1219.66 93.8561 1220.9 93.762ZM1225.36 92.0096C1224.82 92.2203 1224.27 92.4261 1223.72 92.6392C1222.7 92.7142 1221.67 92.7954 1220.65 92.8724C1221.2 92.6879 1221.76 92.5088 1222.32 92.3255L1225.36 92.0096ZM1229.7 90.3471C1229.34 90.4809 1228.99 90.6192 1228.64 90.753C1227.9 90.8266 1227.17 90.9062 1226.44 90.9813L1227.47 90.6486C1228.21 90.5483 1228.95 90.4454 1229.7 90.3471ZM1233.87 88.7975L1233.54 88.9202C1233.23 88.9602 1232.91 88.998 1232.6 89.0387L1232.77 88.9846C1233.14 88.9236 1233.51 88.8585 1233.87 88.7975ZM235.051 209.812C236.527 210.37 237.95 210.877 239.416 211.426C239.107 211.339 238.805 211.26 238.495 211.172C236.925 210.615 235.336 210.038 233.763 209.477C234.191 209.586 234.624 209.704 235.051 209.812ZM220.592 204.277C222.77 205.112 224.959 205.957 227.122 206.778C226.035 206.494 224.953 206.218 223.863 205.93C221.586 205.106 219.335 204.304 217.039 203.461C218.231 203.743 219.402 203.998 220.592 204.277ZM205.291 198.408C208.266 199.566 211.174 200.661 214.13 201.802C212.635 201.446 211.121 201.065 209.622 200.704C206.76 199.648 203.875 198.569 201.002 197.5C202.434 197.807 203.862 198.108 205.291 198.408ZM190.392 192.507C193.649 193.802 196.915 195.104 200.136 196.366C198.44 196.002 196.764 195.663 195.062 195.292C191.758 194.048 188.43 192.785 185.085 191.503C186.853 191.837 188.628 192.182 190.392 192.507ZM174.674 186.264C178.43 187.773 182.126 189.226 185.853 190.709C183.974 190.355 182.084 189.987 180.199 189.623C176.548 188.224 172.885 186.813 169.215 185.397C171.038 185.691 172.855 185.978 174.674 186.264ZM159.136 179.913C163.092 181.537 167.056 183.169 170.961 184.747C169.005 184.433 167.057 184.135 165.096 183.812C161.227 182.305 157.295 180.741 153.365 179.176C155.292 179.429 157.213 179.668 159.136 179.913ZM1224.05 95.2171C1223.26 95.5894 1222.45 95.956 1221.65 96.3322C1220.06 96.3649 1218.46 96.3958 1216.86 96.4328C1217.69 96.0978 1218.52 95.7666 1219.34 95.4346C1220.91 95.358 1222.48 95.2872 1224.05 95.2171ZM1228.39 93.2162C1227.66 93.5478 1226.93 93.885 1226.2 94.22C1224.78 94.2818 1223.36 94.3382 1221.93 94.4034C1222.68 94.1088 1223.42 93.8069 1224.17 93.515C1225.57 93.4105 1226.98 93.313 1228.39 93.2162ZM1232.71 91.2766C1232.07 91.564 1231.42 91.856 1230.78 92.1452C1229.55 92.2287 1228.31 92.3103 1227.08 92.3964C1227.76 92.1376 1228.43 91.8765 1229.1 91.62C1230.3 91.5011 1231.51 91.3929 1232.71 91.2766ZM1237 89.4077C1236.46 89.6409 1235.92 89.873 1235.38 90.1085L1232.36 90.3955C1232.91 90.1905 1233.47 89.9866 1234.02 89.7823C1235.01 89.6554 1236 89.5311 1237 89.4077ZM1241.16 87.6294C1240.77 87.7898 1240.39 87.9453 1240.01 88.1069C1239.28 88.1953 1238.56 88.2891 1237.84 88.3801C1238.22 88.2441 1238.6 88.1126 1238.97 87.9788C1239.7 87.8626 1240.43 87.7433 1241.16 87.6294ZM1245.1 85.9894L1244.7 86.1518C1244.37 86.2029 1244.03 86.2512 1243.7 86.3031L1243.97 86.2059L1245.1 85.9894ZM261.94 218.579C263.104 219.02 264.277 219.469 265.444 219.913C265.001 219.783 264.563 219.659 264.12 219.529C262.933 219.099 261.728 218.652 260.53 218.211C261.004 218.339 261.466 218.454 261.94 218.579ZM246.688 212.719C248.788 213.545 250.876 214.359 252.949 215.159C252.07 214.918 251.185 214.672 250.304 214.43C248.098 213.615 245.878 212.79 243.676 211.977C244.683 212.229 245.682 212.47 246.688 212.719ZM231.76 206.841C234.555 207.941 237.36 209.051 240.143 210.142C238.615 209.757 237.077 209.362 235.544 208.97C232.831 207.95 230.064 206.88 227.307 205.819C228.79 206.158 230.282 206.508 231.76 206.841ZM216.27 200.685C219.513 201.992 222.721 203.269 225.929 204.545C224.31 204.173 222.7 203.81 221.076 203.432L211.27 199.674C212.943 200.019 214.603 200.347 216.27 200.685ZM200.712 194.359C204.362 195.849 208.014 197.338 211.636 198.801C209.689 198.399 207.718 197.968 205.762 197.557C202.282 196.203 198.724 194.778 195.185 193.368C197.029 193.702 198.873 194.034 200.712 194.359ZM184.786 187.823C188.745 189.466 192.666 191.076 196.583 192.68C194.673 192.336 192.773 192.007 190.857 191.652C186.896 190.083 182.953 188.532 178.973 186.946C180.915 187.246 182.848 187.533 184.786 187.823ZM168.791 181.121C173.003 182.894 177.213 184.662 181.384 186.397C179.311 186.081 177.22 185.737 175.141 185.409C171.09 183.782 166.945 182.068 162.822 180.374C164.812 180.623 166.805 180.883 168.791 181.121ZM1223.45 99.3906C1183.52 121.644 1147.59 148.92 1110.99 176.721C976.693 278.721 833.127 387.677 447.998 279.824M1231.7 94.887C1230.89 95.315 1230.09 95.7529 1229.29 96.1859C1227.57 96.2144 1225.85 96.2445 1224.14 96.2788C1224.98 95.8859 1225.82 95.4941 1226.67 95.1042C1228.34 95.0299 1230.02 94.9537 1231.7 94.887ZM1235.86 92.7093C1235.09 93.1091 1234.32 93.5104 1233.56 93.914C1231.98 93.9734 1230.41 94.0386 1228.84 94.1065C1229.64 93.7413 1230.45 93.3835 1231.26 93.0222C1232.79 92.9159 1234.32 92.8072 1235.86 92.7093ZM1239.99 90.5945C1239.27 90.9581 1238.55 91.3159 1237.83 91.6829C1236.43 91.7706 1235.03 91.859 1233.64 91.952C1234.38 91.6235 1235.13 91.3011 1235.87 90.976C1237.24 90.8468 1238.61 90.7187 1239.99 90.5945ZM1244.08 88.5471C1243.44 88.8607 1242.81 89.1767 1242.17 89.4927C1240.98 89.5975 1239.77 89.6939 1238.58 89.8036C1239.23 89.5239 1239.87 89.2396 1240.52 88.9644C1241.7 88.8211 1242.89 88.6862 1244.08 88.5471ZM1248.14 86.5687C1247.61 86.8229 1247.09 87.0829 1246.56 87.339L1243.6 87.6827C1244.15 87.4567 1244.69 87.2277 1245.23 87.0036L1248.14 86.5687ZM1252.15 84.6764L1251.01 85.2115C1250.29 85.3152 1249.57 85.4261 1248.85 85.5332L1249.99 85.0778C1250.71 84.9452 1251.43 84.8068 1252.15 84.6764ZM1255.85 82.9599L1255.41 83.1608L1254.42 83.3334L1254.81 83.1855C1255.15 83.1081 1255.51 83.0361 1255.85 82.9599ZM288.59 227.499C289.589 227.888 290.598 228.287 291.59 228.671L291.333 228.593C290.098 228.137 288.876 227.694 287.641 227.238L288.59 227.499ZM273.453 221.588C275.605 222.428 277.757 223.265 279.914 224.112C278.899 223.823 277.858 223.511 276.841 223.22C274.775 222.444 272.672 221.634 270.587 220.84C271.543 221.09 272.5 221.342 273.453 221.588ZM258.442 215.612C260.987 216.643 263.545 217.686 266.051 218.682C264.84 218.362 263.648 218.062 262.435 217.737C259.593 216.651 256.788 215.599 253.935 214.502C255.431 214.865 256.951 215.255 258.442 215.612ZM242.703 209.259L252.312 213.137C250.603 212.72 248.886 212.295 247.171 211.871C244.113 210.682 241.006 209.448 237.91 208.225C239.517 208.58 241.102 208.91 242.703 209.259ZM227.013 202.817C230.57 204.298 234.126 205.778 237.629 207.212C235.847 206.817 234.048 206.402 232.258 205.999C228.593 204.55 224.985 203.152 221.297 201.682C223.204 202.061 225.115 202.447 227.013 202.817ZM210.979 196.142C214.887 197.772 218.78 199.393 222.669 201.009C220.696 200.618 218.727 200.234 216.745 199.833C212.974 198.317 209.141 196.747 205.319 195.186C207.213 195.515 209.091 195.821 210.979 196.142ZM194.775 189.291C198.951 191.076 203.114 192.849 207.234 194.582C205.227 194.236 203.204 193.864 201.19 193.508C197.011 191.802 192.868 190.128 188.655 188.391C190.695 188.692 192.74 189.001 194.775 189.291ZM178.251 182.209C182.679 184.115 187.087 186.003 191.487 187.882C189.413 187.582 187.337 187.278 185.256 186.966C180.972 185.193 176.616 183.354 172.27 181.524C174.267 181.76 176.258 181.983 178.251 182.209ZM1239.34 94.6118C1238.53 95.1008 1237.72 95.5867 1236.92 96.0795C1235.11 96.1005 1233.31 96.1279 1231.5 96.1557C1232.35 95.7018 1233.2 95.2487 1234.06 94.7997C1235.82 94.7361 1237.58 94.6728 1239.34 94.6118ZM1243.25 92.2695C1242.47 92.7287 1241.69 93.1876 1240.92 93.6514C1239.25 93.7071 1237.58 93.7684 1235.91 93.8294C1236.73 93.4063 1237.53 92.9783 1238.35 92.5606C1239.98 92.4627 1241.61 92.3632 1243.25 92.2695ZM1247.15 89.9759C1246.42 90.3993 1245.69 90.8312 1244.96 91.2591C1243.44 91.3453 1241.91 91.439 1240.39 91.532C1241.16 91.1414 1241.93 90.7473 1242.71 90.3608C1244.19 90.2313 1245.67 90.0982 1247.15 89.9759ZM1251.09 87.7422C1250.41 88.1275 1249.72 88.517 1249.04 88.9073C1247.67 89.017 1246.3 89.1356 1244.94 89.2541C1245.66 88.8981 1246.39 88.5467 1247.11 88.1938C1248.44 88.0406 1249.76 87.8878 1251.09 87.7422ZM1255 85.5824C1254.37 85.9243 1253.74 86.2619 1253.12 86.6072C1251.95 86.7341 1250.77 86.8546 1249.6 86.986C1250.25 86.6724 1250.92 86.3675 1251.58 86.0565C1252.72 85.8934 1253.86 85.7421 1255 85.5824ZM1258.86 83.4984C1258.33 83.7793 1257.8 84.0575 1257.27 84.3396C1256.31 84.4711 1255.35 84.6071 1254.39 84.7393C1254.93 84.492 1255.46 84.2424 1256 83.9969C1256.95 83.8311 1257.9 83.6619 1258.86 83.4984ZM1262.63 81.5174C1262.25 81.7121 1261.88 81.9099 1261.51 82.1058C1260.81 82.2228 1260.11 82.341 1259.42 82.4618C1259.8 82.2922 1260.17 82.1211 1260.55 81.9545C1261.24 81.8074 1261.93 81.6618 1262.63 81.5174ZM1266.21 79.6983L1265.74 79.9373L1264.72 80.1415L1265.14 79.9616L1266.21 79.6983ZM315.253 236.645L315.455 236.724L315.214 236.633L315.253 236.645ZM300.77 230.855C302.638 231.601 304.52 232.36 306.38 233.098C305.599 232.868 304.835 232.656 304.053 232.425C301.883 231.599 299.767 230.818 297.58 229.977C298.639 230.263 299.715 230.57 300.77 230.855ZM285 224.549C287.651 225.62 290.244 226.638 292.891 227.704C291.616 227.354 290.347 227.007 289.069 226.652C286.539 225.67 283.98 224.663 281.439 223.671C282.636 223.976 283.806 224.249 285 224.549ZM269.532 218.185C272.64 219.472 275.759 220.769 278.826 222.022C277.216 221.609 275.577 221.169 273.96 220.75C270.818 219.51 267.698 218.291 264.524 217.024C266.2 217.418 267.864 217.799 269.532 218.185ZM253.613 211.613C257.161 213.085 260.674 214.524 264.22 215.994C262.45 215.577 260.709 215.191 258.93 214.765C255.396 213.348 251.826 211.901 248.262 210.459C250.041 210.84 251.839 211.242 253.613 211.613ZM237.541 204.817C241.338 206.438 245.15 208.073 248.884 209.641C246.99 209.236 245.093 208.825 243.191 208.412C239.397 206.867 235.609 205.329 231.774 203.749C233.707 204.118 235.617 204.456 237.541 204.817ZM221.133 197.836C225.307 199.618 229.452 201.373 233.619 203.148C231.582 202.76 229.537 202.363 227.491 201.965C223.419 200.282 219.31 198.564 215.196 196.846C217.174 197.174 219.162 197.517 221.133 197.836ZM204.554 190.636C208.895 192.541 213.25 194.46 217.517 196.299C215.498 195.964 213.477 195.63 211.45 195.286C207.136 193.477 202.818 191.663 198.456 189.811C200.494 190.096 202.521 190.362 204.554 190.636ZM187.661 183.246C192.293 185.28 196.882 187.278 201.5 189.301C199.416 189.013 197.336 188.732 195.245 188.435C190.735 186.515 186.182 184.558 181.624 182.595C183.638 182.819 185.649 183.032 187.661 183.246ZM1246.96 94.3709C1246.17 94.9148 1245.39 95.4651 1244.61 96.0143C1242.73 96.0277 1240.85 96.0353 1238.97 96.0532C1239.81 95.5456 1240.64 95.0379 1241.47 94.5364C1243.3 94.4762 1245.13 94.4239 1246.96 94.3709ZM1250.63 91.8659C1249.86 92.3819 1249.1 92.9079 1248.34 93.4285C1246.58 93.4784 1244.83 93.5215 1243.07 93.5756C1243.89 93.0908 1244.71 92.6128 1245.53 92.1319C1247.23 92.0381 1248.93 91.9527 1250.63 91.8659ZM1254.34 89.4092C1253.59 89.8986 1252.84 90.3883 1252.1 90.883C1250.48 90.9649 1248.85 91.0469 1247.23 91.1341C1248.02 90.6764 1248.81 90.2275 1249.61 89.7743C1251.18 89.6497 1252.76 89.5285 1254.34 89.4092ZM1258.06 87.0009C1257.34 87.4594 1256.61 87.9129 1255.9 88.3756C1254.42 88.4865 1252.95 88.6035 1251.47 88.7182C1252.22 88.2994 1252.96 87.8786 1253.71 87.464C1255.16 87.3077 1256.6 87.1495 1258.06 87.0009ZM1261.75 84.6643C1261.09 85.0751 1260.43 85.4921 1259.77 85.9075C1258.44 86.0413 1257.12 86.1815 1255.8 86.3229C1256.49 85.9425 1257.18 85.558 1257.88 85.1811C1259.17 85.0058 1260.46 84.8335 1261.75 84.6643ZM1265.45 82.4008C1264.85 82.7621 1264.26 83.1314 1263.66 83.4946C1262.52 83.6417 1261.38 83.782 1260.24 83.9325C1260.87 83.6002 1261.5 83.2705 1262.13 82.9412C1263.23 82.7579 1264.34 82.5799 1265.45 82.4008ZM1269.15 80.2025C1268.63 80.5055 1268.12 80.8077 1267.6 81.1145C1266.65 81.2658 1265.7 81.424 1264.76 81.5776C1265.29 81.3036 1265.84 81.0349 1266.38 80.7628C1267.3 80.576 1268.22 80.3851 1269.15 80.2025ZM1272.71 78.1422C1272.32 78.3617 1271.93 78.5748 1271.55 78.7947C1270.88 78.9235 1270.2 79.0454 1269.52 79.1773C1269.92 78.9829 1270.31 78.7966 1270.71 78.6041C1271.37 78.4463 1272.04 78.2981 1272.71 78.1422ZM1276.1 76.2328L1275.62 76.5026C1275.27 76.5819 1274.92 76.665 1274.57 76.7454C1274.71 76.6783 1274.85 76.609 1274.99 76.5411L1276.1 76.2328ZM343.282 246.405L345.939 247.455L345.734 247.391C344.78 247.028 343.796 246.639 342.833 246.27L343.282 246.405ZM327.895 240.259C329.53 240.929 331.18 241.61 332.789 242.258L331.27 241.8C329.445 241.094 327.611 240.383 325.796 239.685C326.503 239.883 327.189 240.062 327.895 240.259ZM312.373 233.918C314.902 234.949 317.445 235.993 319.969 237.021C318.573 236.624 317.159 236.207 315.756 235.805C313.381 234.87 310.949 233.887 308.532 232.917C309.82 233.258 311.09 233.581 312.373 233.918ZM296.46 227.377C299.596 228.684 302.676 229.943 305.783 231.226C304.284 230.826 302.781 230.421 301.276 230.015C298.125 228.756 294.964 227.49 291.814 226.23C293.363 226.613 294.917 227.001 296.46 227.377ZM280.756 220.759C284.154 222.194 287.559 223.637 290.928 225.046C289.118 224.598 287.323 224.165 285.504 223.708C282.148 222.346 278.742 220.939 275.332 219.53C277.14 219.941 278.954 220.356 280.756 220.759ZM264.211 213.772C268.123 215.442 271.949 217.038 275.837 218.687C273.91 218.249 271.961 217.786 270.025 217.338C266.251 215.783 262.473 214.223 258.686 212.657C260.536 213.038 262.369 213.401 264.211 213.772ZM248.047 206.76C252.087 208.52 256.134 210.285 260.121 211.998C258.118 211.587 256.128 211.191 254.115 210.769C250.095 209.089 246.024 207.364 241.944 205.631C243.975 206.003 246.024 206.399 248.047 206.76ZM231.058 199.392C235.494 201.332 239.839 203.194 244.255 205.116C242.184 204.739 240.103 204.35 238.022 203.962C233.734 202.143 229.44 200.318 225.127 198.476C227.111 198.792 229.081 199.086 231.058 199.392ZM214.301 191.932C218.831 193.959 223.375 195.998 227.831 197.962C225.76 197.637 223.693 197.319 221.615 196.982C217.141 195.059 212.618 193.093 208.08 191.113C210.155 191.389 212.231 191.667 214.301 191.932ZM196.994 184.218C201.822 186.379 206.585 188.486 211.404 190.641C209.285 190.365 207.152 190.064 205.027 189.778C200.318 187.723 195.602 185.664 190.86 183.579C192.905 183.792 194.953 184.014 196.994 184.218ZM1254.62 94.1621C1253.85 94.7643 1253.09 95.3691 1252.34 95.9759C1250.38 95.98 1248.43 95.9892 1246.48 96.0021C1247.29 95.4366 1248.11 94.8774 1248.93 94.3157C1250.82 94.2616 1252.72 94.2078 1254.62 94.1621ZM1258.05 91.4988C1257.29 92.0778 1256.54 92.6518 1255.79 93.236C1253.96 93.2768 1252.13 93.3244 1250.31 93.3739C1251.1 92.8339 1251.9 92.2931 1252.7 91.7596C1254.48 91.6692 1256.26 91.5808 1258.05 91.4988ZM1261.5 88.8859C1260.76 89.4355 1260.03 89.9846 1259.3 90.5399C1257.59 90.6154 1255.89 90.6924 1254.19 90.7759C1254.96 90.2633 1255.74 89.7461 1256.52 89.2396C1258.17 89.1169 1259.83 89.0021 1261.5 88.8859ZM1264.96 86.3229C1264.25 86.8378 1263.55 87.3634 1262.85 87.8824C1261.27 87.9895 1259.7 88.0924 1258.13 88.2052C1258.88 87.722 1259.64 87.2414 1260.39 86.7635C1261.91 86.6137 1263.43 86.4681 1264.96 86.3229ZM1268.49 83.801C1267.8 84.285 1267.12 84.7748 1266.44 85.263C1264.99 85.3983 1263.55 85.5416 1262.1 85.6819C1262.83 85.2287 1263.57 84.7859 1264.3 84.3377C1265.69 84.1566 1267.09 83.9733 1268.49 83.801ZM1271.99 81.3703C1271.34 81.8105 1270.7 82.2468 1270.06 82.6924C1268.77 82.8471 1267.49 83.0071 1266.21 83.1699C1266.89 82.7579 1267.57 82.3497 1268.26 81.9419C1269.5 81.7464 1270.75 81.5597 1271.99 81.3703ZM1275.48 79.0028C1274.9 79.3926 1274.31 79.7806 1273.73 80.1739C1272.62 80.3397 1271.52 80.5055 1270.42 80.6743C1271.02 80.3229 1271.61 79.9662 1272.22 79.619C1273.3 79.4132 1274.39 79.2044 1275.48 79.0028ZM1278.95 76.7233C1278.46 77.0385 1277.98 77.362 1277.49 77.6784C1276.58 77.8449 1275.66 78.0195 1274.75 78.1921C1275.27 77.8994 1275.78 77.6033 1276.31 77.3121C1277.18 77.1135 1278.07 76.9181 1278.95 76.7233ZM1282.37 74.5601L1281.26 75.2602C1280.59 75.4024 1279.93 75.5452 1279.27 75.6901L1280.41 75.0723L1282.37 74.5601ZM1285.63 72.5436L1285.1 72.8664L1284.1 73.1194L1284.61 72.8572L1285.63 72.5436ZM355.248 249.888C356.902 250.569 358.549 251.242 360.183 251.906L358.488 251.377C356.791 250.713 355.064 250.022 353.355 249.347C353.99 249.531 354.615 249.705 355.248 249.888ZM339.746 243.5C342.296 244.549 344.862 245.61 347.412 246.659C346.23 246.312 345.011 245.931 343.824 245.579C341.175 244.526 338.572 243.512 335.917 242.454C337.194 242.804 338.473 243.154 339.746 243.5ZM324.077 236.968C326.955 238.185 329.832 239.402 332.667 240.584C331.228 240.186 329.814 239.811 328.368 239.408C325.424 238.218 322.427 236.983 319.445 235.76C320.982 236.157 322.547 236.58 324.077 236.968ZM307.809 230.095C311.231 231.544 314.644 232.983 318.059 234.426C316.332 233.979 314.599 233.526 312.864 233.072C309.451 231.671 306.079 230.307 302.66 228.902C304.392 229.316 306.086 229.69 307.809 230.095ZM291.543 223.105C295.308 224.74 299.087 226.386 302.794 227.97C300.865 227.509 298.896 227.006 296.958 226.534C293.322 225.02 289.616 223.445 285.923 221.882C287.8 222.295 289.675 222.702 291.543 223.105ZM274.938 215.923C279.024 217.706 283.036 219.423 287.096 221.181C285.139 220.753 283.202 220.346 281.235 219.907C277.133 218.174 273.063 216.47 268.952 214.729C270.945 215.125 272.953 215.537 274.938 215.923ZM258.167 208.508C262.478 210.421 266.793 212.338 271.046 214.204C268.939 213.789 266.811 213.349 264.694 212.922C260.562 211.153 256.338 209.304 252.133 207.472C254.152 207.826 256.157 208.163 258.167 208.508ZM241.115 200.925C245.673 202.969 250.181 204.968 254.695 206.971C252.636 206.614 250.594 206.276 248.527 205.906C243.969 203.927 239.438 201.972 234.864 199.979C236.947 200.295 239.039 200.621 241.115 200.925ZM223.813 193.109C228.577 195.27 233.33 197.421 238.043 199.538C235.881 199.215 233.703 198.868 231.532 198.533C226.957 196.522 222.283 194.426 217.625 192.343C219.69 192.603 221.754 192.861 223.813 193.109ZM206.266 185.1C211.206 187.37 216.129 189.626 221.006 191.841C218.927 191.585 216.851 191.335 214.766 191.069C209.863 188.881 204.993 186.722 200.072 184.518C202.141 184.721 204.203 184.908 206.266 185.1ZM1262.27 94.0093C1261.55 94.6652 1260.81 95.3192 1260.09 95.9812C1258.09 95.9747 1256.09 95.9758 1254.1 95.977C1254.87 95.3584 1255.64 94.738 1256.43 94.127C1258.37 94.0851 1260.32 94.0451 1262.27 94.0093ZM1265.45 91.1814C1264.73 91.8125 1264.02 92.4494 1263.3 93.0862C1261.41 93.1182 1259.52 93.159 1257.63 93.199C1258.4 92.6033 1259.17 92.0088 1259.95 91.4181C1261.78 91.3361 1263.61 91.2545 1265.45 91.1814ZM1268.66 88.4053C1267.95 89.0079 1267.25 89.62 1266.55 90.229C1264.77 90.2976 1262.99 90.378 1261.2 90.458C1261.97 89.8829 1262.74 89.3174 1263.51 88.748C1265.22 88.631 1266.94 88.5139 1268.66 88.4053ZM1271.91 85.6876C1271.21 86.2642 1270.51 86.8435 1269.82 87.427C1268.17 87.5287 1266.51 87.6351 1264.86 87.7452C1265.61 87.1968 1266.36 86.6556 1267.11 86.1141C1268.71 85.9662 1270.31 85.8282 1271.91 85.6876ZM1275.19 83.014C1274.5 83.5647 1273.81 84.1097 1273.13 84.6665C1271.62 84.7984 1270.1 84.9246 1268.59 85.0603C1269.31 84.5511 1270.02 84.0389 1270.74 83.5354C1272.22 83.359 1273.7 83.1844 1275.19 83.014ZM1278.48 80.4038C1277.83 80.911 1277.18 81.4229 1276.53 81.9343C1275.14 82.0925 1273.75 82.259 1272.36 82.4241C1273.05 81.9484 1273.74 81.4697 1274.43 81.0006C1275.78 80.7982 1277.12 80.597 1278.48 80.4038ZM1281.76 77.875C1281.15 78.3347 1280.55 78.8042 1279.95 79.2684C1278.71 79.443 1277.47 79.6152 1276.23 79.7966C1276.89 79.361 1277.54 78.93 1278.2 78.5001C1279.38 78.2874 1280.57 78.0827 1281.76 77.875ZM1285.12 75.3894C1284.55 75.804 1283.98 76.2195 1283.42 76.6383C1282.34 76.8251 1281.25 77.0187 1280.17 77.2085C1280.77 76.8231 1281.38 76.4474 1281.99 76.0659C1283.03 75.8391 1284.07 75.6093 1285.12 75.3894ZM1288.38 73.0375C1287.9 73.382 1287.4 73.7189 1286.92 74.0665C1286.05 74.2445 1285.18 74.4168 1284.31 74.599C1284.82 74.2849 1285.33 73.9758 1285.84 73.6637C1286.68 73.4506 1287.53 73.2467 1288.38 73.0375ZM1291.6 70.7775C1291.24 71.0259 1290.88 71.2813 1290.52 71.5325C1289.87 71.688 1289.23 71.8507 1288.59 72.0073C1288.96 71.7874 1289.32 71.5611 1289.69 71.3423C1290.33 71.1555 1290.96 70.9612 1291.6 70.7775ZM1294.67 68.7152L1294.15 69.0636L1293.19 69.3319L1293.69 69.0396C1294.02 68.931 1294.35 68.8242 1294.67 68.7152ZM383.06 259.84C384.671 260.509 386.298 261.192 387.889 261.844C387.223 261.632 386.539 261.405 385.871 261.192C384.236 260.544 382.563 259.865 380.908 259.201L383.06 259.84ZM367.545 253.401L374.659 256.354C373.569 256.026 372.507 255.721 371.413 255.389C368.869 254.367 366.339 253.355 363.789 252.328C365.036 252.68 366.303 253.053 367.545 253.401ZM351.682 246.719C354.48 247.911 357.29 249.116 360.051 250.276C358.573 249.854 357.099 249.436 355.614 249.008C352.833 247.872 350.005 246.699 347.194 245.537C348.698 245.94 350.185 246.325 351.682 246.719ZM335.244 239.732C338.695 241.208 342.091 242.64 345.525 244.103C343.74 243.623 341.924 243.114 340.13 242.626C336.775 241.236 333.455 239.877 330.071 238.462C331.806 238.895 333.518 239.306 335.244 239.732ZM319.045 232.702C322.725 234.307 326.414 235.918 330.052 237.488C328.193 237.021 326.35 236.575 324.481 236.1C320.767 234.54 317.019 232.951 313.274 231.363C315.197 231.809 317.131 232.267 319.045 232.702ZM302.305 225.392C306.335 227.167 310.312 228.896 314.306 230.642C312.284 230.174 310.265 229.711 308.232 229.232C304.319 227.564 300.377 225.873 296.414 224.164C298.386 224.582 300.344 224.985 302.305 225.392ZM285.425 217.893C289.741 219.816 294.048 221.733 298.324 223.622C296.222 223.18 294.083 222.696 291.971 222.241C287.734 220.412 283.492 218.578 279.232 216.73C281.302 217.125 283.365 217.51 285.425 217.893ZM268.348 210.23C272.838 212.26 277.306 214.273 281.742 216.256C279.617 215.854 277.51 215.475 275.375 215.06C270.993 213.144 266.526 211.155 262.074 209.178C264.167 209.531 266.264 209.888 268.348 210.23ZM250.881 202.31C255.645 204.479 260.374 206.618 265.106 208.76C262.949 208.402 260.77 208.014 258.604 207.643C253.917 205.566 249.27 203.523 244.544 201.412C246.661 201.718 248.772 202.016 250.881 202.31ZM233.31 194.221C238.196 196.485 243.089 198.757 247.9 200.959C245.783 200.657 243.676 200.37 241.551 200.058C236.765 197.912 231.914 195.712 227.062 193.511C229.151 193.759 231.227 193.983 233.31 194.221ZM215.392 185.925C220.529 188.319 225.585 190.643 230.686 193.008C228.547 192.76 226.402 192.502 224.256 192.244C219.255 189.973 214.24 187.689 209.186 185.373C211.256 185.562 213.326 185.746 215.392 185.925ZM1269.95 93.8972C1269.26 94.6027 1268.59 95.315 1267.91 96.0281C1265.86 96.0128 1263.81 95.9915 1261.76 95.9816C1262.5 95.3085 1263.25 94.6423 1263.99 93.9754C1265.98 93.9433 1267.96 93.9212 1269.95 93.8972ZM1272.88 90.9165C1272.2 91.601 1271.52 92.2908 1270.85 92.9822C1268.91 93.0054 1266.96 93.0229 1265.02 93.053C1265.76 92.3994 1266.5 91.7561 1267.25 91.1097C1269.12 91.04 1271 90.9798 1272.88 90.9165ZM1275.87 87.9796C1275.18 88.6439 1274.5 89.307 1273.82 89.9782C1271.99 90.0376 1270.16 90.102 1268.33 90.1668C1269.06 89.5406 1269.79 88.9152 1270.52 88.2952C1272.3 88.1873 1274.08 88.0791 1275.87 87.9796ZM1278.87 85.0987C1278.2 85.7337 1277.52 86.3686 1276.86 87.0116C1275.13 87.1053 1273.41 87.2113 1271.7 87.3164C1272.41 86.7162 1273.12 86.1129 1273.85 85.5195C1275.52 85.3758 1277.19 85.2333 1278.87 85.0987ZM1281.89 82.2785C1281.23 82.8814 1280.58 83.4939 1279.93 84.1036C1278.32 84.2306 1276.72 84.3594 1275.12 84.4954C1275.83 83.9173 1276.55 83.3422 1277.26 82.7713C1278.8 82.5998 1280.35 82.4416 1281.89 82.2785ZM1284.97 79.502C1284.32 80.0745 1283.68 80.6568 1283.04 81.2357C1281.56 81.3905 1280.08 81.5463 1278.6 81.7079C1279.29 81.1641 1279.99 80.6339 1280.69 80.0966C1282.11 79.8965 1283.54 79.6926 1284.97 79.502ZM1288.06 76.806C1287.44 77.3392 1286.82 77.8701 1286.21 78.4074C1284.85 78.5862 1283.51 78.7745 1282.16 78.9616C1282.83 78.4543 1283.5 77.9535 1284.17 77.452C1285.47 77.2306 1286.77 77.0194 1288.06 76.806ZM1291.19 74.1637C1290.59 74.6576 1289.99 75.147 1289.41 75.647C1288.22 75.8387 1287.02 76.0281 1285.84 76.2259C1286.45 75.7747 1287.06 75.3189 1287.68 74.8722C1288.85 74.6359 1290.01 74.3947 1291.19 74.1637ZM1294.28 71.6217C1293.75 72.0451 1293.23 72.4784 1292.71 72.906C1291.66 73.108 1290.63 73.3192 1289.59 73.5292C1290.16 73.1248 1290.73 72.7193 1291.3 72.3195C1292.29 72.0816 1293.29 71.8526 1294.28 71.6217ZM1297.41 69.1573C1296.94 69.5175 1296.48 69.8845 1296.02 70.2477C1295.17 70.4424 1294.32 70.6369 1293.47 70.8339C1293.96 70.5012 1294.46 70.1704 1294.95 69.8395C1295.77 69.6128 1296.58 69.3814 1297.41 69.1573ZM1300.46 66.8295C1300.11 67.0936 1299.76 67.3569 1299.41 67.623C1298.78 67.7891 1298.16 67.9538 1297.54 68.1219C1297.92 67.8734 1298.31 67.6298 1298.69 67.3821C1299.28 67.1931 1299.87 67.0151 1300.46 66.8295ZM1303.35 64.6823C1303.17 64.8149 1302.98 64.9422 1302.8 65.076C1302.48 65.1747 1302.16 65.2772 1301.84 65.3763C1302.02 65.2627 1302.21 65.1537 1302.39 65.0398C1302.71 64.9212 1303.03 64.7997 1303.35 64.6823ZM411.288 270.098C412.803 270.729 414.336 271.374 415.841 271.997C415.273 271.813 414.725 271.646 414.156 271.462C412.525 270.809 410.856 270.125 409.209 269.458C409.899 269.668 410.6 269.889 411.288 270.098ZM395.538 263.529C397.768 264.466 399.952 265.366 402.172 266.296C401.093 265.962 400.024 265.638 398.94 265.302C396.634 264.364 394.358 263.451 392.043 262.509C393.205 262.846 394.38 263.194 395.538 263.529ZM379.432 256.674C382.255 257.881 385.09 259.098 387.89 260.285C386.392 259.845 384.873 259.388 383.367 258.941C380.623 257.81 377.841 256.647 375.074 255.498C376.539 255.901 377.974 256.277 379.432 256.674ZM363.061 249.655C366.465 251.13 369.82 252.562 373.194 254.011C371.445 253.527 369.668 253.016 367.91 252.523C364.574 251.129 361.248 249.741 357.878 248.318C359.609 248.768 361.339 249.215 363.061 249.655ZM346.845 242.58C350.434 244.148 354.027 245.719 357.593 247.27C355.739 246.788 353.909 246.329 352.045 245.837C348.383 244.285 344.701 242.717 341.022 241.15C342.956 241.619 344.922 242.122 346.845 242.58ZM329.94 235.125C333.905 236.89 337.856 238.642 341.771 240.365C339.734 239.872 337.681 239.363 335.632 238.858C331.831 237.224 327.973 235.543 324.117 233.863C326.074 234.301 327.993 234.699 329.94 235.125ZM312.936 227.548C317.226 229.467 321.487 231.361 325.755 233.261C323.666 232.796 321.561 232.315 319.459 231.836C315.197 229.981 310.977 228.161 306.686 226.28C308.773 226.707 310.86 227.134 312.936 227.548ZM295.823 219.8C300.244 221.816 304.678 223.842 309.034 225.804C306.928 225.378 304.832 224.961 302.715 224.522C298.361 222.602 293.948 220.632 289.537 218.666C291.638 219.05 293.732 219.427 295.823 219.8ZM278.262 211.799C283.031 213.989 287.727 216.115 292.456 218.269C290.271 217.874 288.052 217.438 285.856 217.03C281.234 214.966 276.614 212.903 271.943 210.799C274.053 211.138 276.16 211.472 278.262 211.799ZM260.64 203.638C265.512 205.903 270.375 208.16 275.19 210.376C273.05 210.038 270.921 209.712 268.771 209.361C263.968 207.191 259.142 205.002 254.293 202.794C256.414 203.085 258.525 203.359 260.64 203.638ZM242.73 195.279C247.808 197.664 252.848 200.018 257.866 202.354C255.69 202.061 253.499 201.747 251.314 201.442C246.372 199.184 241.375 196.88 236.365 194.563C238.486 194.8 240.616 195.053 242.73 195.279ZM224.513 186.688C229.764 189.176 234.969 191.625 240.173 194.073C238.034 193.84 235.887 193.595 233.742 193.35C228.557 190.953 223.415 188.59 218.191 186.159C220.299 186.339 222.408 186.519 224.513 186.688ZM1277.67 93.8187C1277.03 94.5779 1276.39 95.3394 1275.76 96.1054C1273.67 96.0787 1271.58 96.0589 1269.49 96.0406C1270.18 95.3173 1270.88 94.5943 1271.58 93.877C1273.61 93.8526 1275.64 93.832 1277.67 93.8187ZM1280.36 90.6898C1279.72 91.4303 1279.07 92.1651 1278.43 92.9124C1276.44 92.9246 1274.46 92.9418 1272.48 92.9635C1273.17 92.2607 1273.86 91.5541 1274.56 90.8593C1276.49 90.7983 1278.42 90.7416 1280.36 90.6898ZM1283.08 87.6073C1282.43 88.3226 1281.79 89.0399 1281.16 89.7636C1279.28 89.8132 1277.4 89.8631 1275.52 89.9206C1276.21 89.2373 1276.9 88.5543 1277.6 87.8794C1279.42 87.7818 1281.25 87.6972 1283.08 87.6073ZM1285.83 84.5667C1285.19 85.2561 1284.56 85.9582 1283.93 86.656C1282.15 86.7406 1280.37 86.8283 1278.6 86.9197C1279.29 86.2612 1279.98 85.6113 1280.68 84.9604C1282.39 84.8251 1284.11 84.6917 1285.83 84.5667ZM1288.63 81.5898C1288 82.2502 1287.38 82.9157 1286.75 83.5831C1285.08 83.7023 1283.41 83.8353 1281.74 83.9657C1282.42 83.3303 1283.12 82.7027 1283.81 82.075C1285.41 81.9076 1287.02 81.7479 1288.63 81.5898ZM1291.47 78.6674C1290.85 79.3046 1290.22 79.9361 1289.59 80.5806C1288.05 80.7281 1286.5 80.8752 1284.97 81.0322C1285.64 80.4312 1286.3 79.8309 1286.98 79.2375C1288.47 79.0435 1289.97 78.8541 1291.47 78.6674ZM1294.35 75.8021C1293.74 76.4024 1293.12 77.0019 1292.52 77.6086C1291.09 77.7843 1289.66 77.9676 1288.24 78.1513C1288.89 77.5865 1289.53 77.0186 1290.19 76.4603C1291.57 76.237 1292.96 76.0152 1294.35 75.8021ZM1297.22 73.0142C1296.64 73.5684 1296.06 74.1336 1295.49 74.6938C1294.18 74.8909 1292.88 75.0875 1291.59 75.2922C1292.22 74.7617 1292.86 74.2357 1293.5 73.7106C1294.74 73.4743 1295.98 73.2452 1297.22 73.0142ZM1300.17 70.2812C1299.61 70.7908 1299.06 71.3061 1298.51 71.821C1297.34 72.034 1296.17 72.2573 1295.01 72.4765C1295.61 71.9902 1296.23 71.5149 1296.84 71.0344C1297.94 70.7798 1299.05 70.5274 1300.17 70.2812ZM1303.11 67.6485C1302.59 68.1051 1302.07 68.5559 1301.56 69.0167C1300.57 69.2313 1299.57 69.4397 1298.58 69.6596C1299.12 69.2366 1299.68 68.8185 1300.23 68.3989C1301.19 68.1459 1302.15 67.897 1303.11 67.6485ZM1306.04 65.1076C1305.59 65.4868 1305.14 65.863 1304.7 66.2441C1303.88 66.4514 1303.06 66.6706 1302.25 66.8836C1302.72 66.5341 1303.18 66.1781 1303.65 65.8328C1304.44 65.5889 1305.24 65.3465 1306.04 65.1076ZM1308.89 62.7142C1308.56 62.9889 1308.23 63.2732 1307.89 63.5503C1307.3 63.7241 1306.71 63.8945 1306.12 64.0702C1306.48 63.8179 1306.83 63.5617 1307.18 63.3121C1307.75 63.1116 1308.32 62.9116 1308.89 62.7142ZM1311.69 60.469L1311.17 60.8825C1310.88 60.9808 1310.58 61.075 1310.29 61.1745L1310.84 60.8021C1311.12 60.6881 1311.41 60.5826 1311.69 60.469ZM439.838 280.626C441.086 281.145 442.345 281.676 443.592 282.196C443.064 282.022 442.546 281.855 442.018 281.68C440.685 281.142 439.325 280.582 437.985 280.037C438.596 280.228 439.228 280.436 439.838 280.626ZM423.488 273.751C425.653 274.673 427.788 275.574 429.931 276.479C428.891 276.149 427.842 275.814 426.799 275.482C424.577 274.572 422.411 273.707 420.174 272.784C421.29 273.116 422.377 273.422 423.488 273.751ZM407.414 266.869C410.297 268.101 413.193 269.345 416.072 270.575C414.579 270.127 413.036 269.635 411.536 269.179C408.728 268.012 405.896 266.823 403.079 265.65C404.529 266.061 405.971 266.463 407.414 266.869ZM391.227 259.86C394.402 261.25 397.581 262.644 400.711 263.998C399.077 263.532 397.482 263.101 395.839 262.627C392.589 261.257 389.301 259.856 386.006 258.449C387.74 258.914 389.5 259.402 391.227 259.86ZM374.587 252.58C378.205 254.17 381.786 255.729 385.389 257.305C383.523 256.804 381.658 256.302 379.781 255.79C376.193 254.258 372.629 252.743 369.024 251.195C370.886 251.665 372.735 252.12 374.587 252.58ZM357.795 245.105C361.734 246.869 365.682 248.641 369.57 250.362C367.54 249.851 365.466 249.298 363.424 248.776C359.626 247.131 355.772 245.439 351.926 243.755C353.894 244.217 355.838 244.656 357.795 245.105ZM340.757 237.472C344.983 239.379 349.15 241.239 353.338 243.115C351.295 242.637 349.286 242.195 347.231 241.705C343.006 239.852 338.79 238.007 334.522 236.119C336.599 236.567 338.692 237.035 340.757 237.472ZM323.492 229.611C327.926 231.636 332.353 233.655 336.744 235.644C334.616 235.189 332.482 234.725 330.342 234.255C326.004 232.33 321.641 230.383 317.267 228.426C319.355 228.837 321.415 229.214 323.492 229.611ZM305.978 221.563C310.658 223.729 315.319 225.878 319.941 227.995C317.755 227.57 315.544 227.118 313.348 226.679C308.8 224.636 304.201 222.549 299.591 220.453C301.723 220.829 303.855 221.202 305.978 221.563ZM288.181 213.312C293.056 215.582 297.891 217.818 302.733 220.059C300.569 219.684 298.415 219.319 296.241 218.931C291.423 216.74 286.638 214.579 281.782 212.357C283.923 212.686 286.049 212.996 288.181 213.312ZM270.263 204.882C275.28 207.257 280.314 209.644 285.254 211.955C283.074 211.627 280.874 211.272 278.684 210.93C273.783 208.677 268.808 206.362 263.837 204.051C265.979 204.329 268.128 204.616 270.263 204.882ZM251.939 196.212C257.184 198.709 262.359 201.146 267.559 203.606C265.398 203.331 263.234 203.053 261.064 202.766C255.939 200.382 250.818 198.004 245.64 195.577C247.744 195.797 249.84 196.003 251.939 196.212ZM233.517 187.374C238.881 189.957 244.227 192.527 249.52 195.052C247.4 194.836 245.288 194.635 243.163 194.409C237.896 191.936 232.6 189.438 227.274 186.914C229.359 187.078 231.435 187.22 233.517 187.374ZM1285.43 93.7874C1284.83 94.6 1284.24 95.4099 1283.65 96.2285C1281.53 96.19 1279.4 96.158 1277.28 96.1291C1277.92 95.3531 1278.56 94.5775 1279.22 93.8119C1281.28 93.8001 1283.35 93.7894 1285.43 93.7874ZM1287.86 90.5018C1287.26 91.2911 1286.68 92.0865 1286.09 92.8823C1284.05 92.8838 1282.02 92.8945 1279.99 92.9067C1280.64 92.1498 1281.3 91.3994 1281.95 90.6489C1283.92 90.596 1285.89 90.5426 1287.86 90.5018ZM1290.32 87.2757C1289.72 88.0383 1289.14 88.815 1288.56 89.5852C1286.62 89.6237 1284.69 89.6725 1282.75 89.7224C1283.41 88.9827 1284.07 88.2559 1284.73 87.5245C1286.59 87.4361 1288.45 87.3542 1290.32 87.2757ZM1292.84 84.0926C1292.24 84.838 1291.65 85.5862 1291.06 86.3385C1289.23 86.4125 1287.41 86.4875 1285.59 86.5729C1286.24 85.8591 1286.89 85.1494 1287.55 84.4421C1289.31 84.3209 1291.08 84.2065 1292.84 84.0926ZM1295.42 80.9499C1294.81 81.6763 1294.2 82.3966 1293.61 83.1307C1291.89 83.24 1290.18 83.3547 1288.47 83.4694C1289.11 82.7865 1289.75 82.0978 1290.4 81.4221C1292.07 81.2605 1293.74 81.0985 1295.42 80.9499ZM1298 77.8868C1297.41 78.5755 1296.82 79.2684 1296.23 79.9647C1294.62 80.1061 1293.01 80.2566 1291.4 80.4087C1292.04 79.7455 1292.69 79.0862 1293.34 78.4307C1294.89 78.2432 1296.44 78.0664 1298 77.8868ZM1300.63 74.8657C1300.04 75.5232 1299.47 76.1958 1298.89 76.8605C1297.39 77.032 1295.89 77.1989 1294.39 77.3769C1295.03 76.7477 1295.67 76.1299 1296.31 75.509C1297.75 75.2922 1299.18 75.0723 1300.63 74.8657ZM1303.32 71.9212C1302.74 72.5398 1302.18 73.1633 1301.61 73.7902C1300.22 73.9869 1298.83 74.195 1297.45 74.4015C1298.08 73.802 1298.72 73.2086 1299.35 72.6152C1300.67 72.3766 1301.99 72.1503 1303.32 71.9212ZM1306.05 69.0236C1305.48 69.6132 1304.91 70.197 1304.35 70.7943C1303.11 71.0065 1301.86 71.2173 1300.62 71.4364C1301.22 70.8906 1301.81 70.3423 1302.41 69.8014C1303.62 69.5404 1304.83 69.2755 1306.05 69.0236ZM1308.77 66.2327C1308.24 66.7624 1307.72 67.2929 1307.2 67.828C1306.08 68.0551 1304.97 68.2891 1303.85 68.5262C1304.43 68.0197 1305 67.5082 1305.57 67.0075C1306.63 66.7426 1307.7 66.4926 1308.77 66.2327ZM1311.53 63.5C1311.04 63.9718 1310.56 64.4559 1310.08 64.9323C1309.12 65.1621 1308.16 65.3976 1307.19 65.632C1307.72 65.1888 1308.24 64.7467 1308.77 64.308C1309.69 64.0382 1310.6 63.7619 1311.53 63.5ZM1314.29 60.9004C1313.87 61.2941 1313.44 61.6897 1313.03 62.0876C1312.24 62.3056 1311.45 62.5164 1310.67 62.7386C1311.13 62.3651 1311.6 61.9999 1312.06 61.6303C1312.8 61.3833 1313.55 61.1424 1314.29 60.9004ZM1317.03 58.3972C1316.7 58.6968 1316.36 58.9906 1316.03 59.2925C1315.44 59.48 1314.86 59.6755 1314.28 59.8661C1314.64 59.5829 1315.02 59.3096 1315.38 59.0303C1315.93 58.8191 1316.48 58.6049 1317.03 58.3972ZM1319.55 56.1616C1319.39 56.3007 1319.24 56.4455 1319.07 56.5862L1318.21 56.9017C1318.37 56.7794 1318.54 56.6513 1318.7 56.5294L1319.55 56.1616ZM467.872 291.06L471.654 292.646L470.297 292.189C469.024 291.671 467.736 291.14 466.462 290.621C466.937 290.772 467.398 290.91 467.872 291.06ZM451.832 284.244C453.973 285.164 456.133 286.096 458.252 286.997C457.17 286.649 456.06 286.276 454.975 285.924C452.855 285.049 450.716 284.157 448.572 283.26C449.664 283.594 450.745 283.915 451.832 284.244ZM435.621 277.292C438.439 278.51 441.199 279.68 444.001 280.886C442.674 280.478 441.391 280.108 440.058 279.694C437.149 278.475 434.25 277.268 431.33 276.04C432.758 276.455 434.2 276.882 435.621 277.292ZM419.592 270.279C422.657 271.624 425.735 272.979 428.774 274.304C427.103 273.814 425.444 273.337 423.763 272.84C420.68 271.53 417.548 270.179 414.43 268.842C416.144 269.315 417.887 269.815 419.592 270.279ZM402.664 262.826C406.27 264.428 409.836 265.998 413.405 267.57C411.531 267.051 409.628 266.506 407.743 265.977C404.238 264.468 400.756 262.979 397.219 261.444C399.05 261.92 400.841 262.357 402.664 262.826ZM385.841 255.306C389.776 257.069 393.709 258.83 397.62 260.571C395.622 260.051 393.606 259.513 391.595 258.981C387.722 257.294 383.822 255.582 379.923 253.871C381.9 254.355 383.875 254.834 385.841 255.306ZM368.924 247.66C373.004 249.518 377.081 251.376 381.103 253.188C379.05 252.688 377.02 252.21 374.955 251.698C370.885 249.902 366.763 248.063 362.635 246.219C364.724 246.691 366.847 247.198 368.924 247.66ZM351.337 239.647C355.815 241.699 360.229 243.698 364.675 245.723C362.524 245.239 360.348 244.727 358.185 244.23C353.829 242.283 349.507 240.366 345.12 238.393C347.208 238.828 349.26 239.225 351.337 239.647ZM333.909 231.571C338.514 233.714 343.126 235.862 347.667 237.953C345.505 237.508 343.347 237.064 341.173 236.605C336.643 234.558 332.045 232.455 327.453 230.356C329.606 230.762 331.768 231.179 333.909 231.571ZM316.026 223.237C320.875 225.511 325.672 227.744 330.469 229.977C328.286 229.569 326.101 229.161 323.905 228.741C319.173 226.578 314.435 224.409 309.65 222.202C311.786 222.561 313.9 222.891 316.026 223.237ZM298.02 214.739C303.045 217.119 308.052 219.483 313.024 221.821C310.828 221.458 308.615 221.074 306.407 220.698C301.472 218.417 296.516 216.118 291.533 213.798C293.697 214.114 295.865 214.436 298.02 214.739ZM279.718 206.016C284.894 208.496 290.06 210.968 295.166 213.392C292.983 213.08 290.8 212.766 288.606 212.441C283.576 210.091 278.474 207.683 273.369 205.274C275.495 205.534 277.601 205.766 279.718 206.016ZM261.162 197.112C266.536 199.704 271.843 202.24 277.173 204.795C275.016 204.536 272.861 204.282 270.696 204.011C265.397 201.51 260.137 199.042 254.79 196.5C256.917 196.709 259.042 196.914 261.162 197.112ZM242.483 188.018C247.96 190.697 253.449 193.383 258.838 195.99C256.689 195.785 254.527 195.554 252.373 195.339C247.03 192.793 241.609 190.182 236.184 187.57C238.285 187.722 240.387 187.876 242.483 188.018ZM1293.21 93.8096C1292.67 94.6671 1292.14 95.5326 1291.61 96.3981C1289.45 96.3482 1287.28 96.2944 1285.12 96.251C1285.72 95.4221 1286.32 94.6034 1286.93 93.7817C1289.02 93.7844 1291.11 93.8001 1293.21 93.8096ZM1295.39 90.3761C1294.85 91.2138 1294.31 92.0625 1293.78 92.909C1291.71 92.8991 1289.65 92.8857 1287.58 92.8823C1288.18 92.0747 1288.79 91.2751 1289.39 90.4763C1291.39 90.4397 1293.39 90.4047 1295.39 90.3761ZM1297.63 86.9876C1297.08 87.8085 1296.53 88.6321 1295.99 89.4618C1294.02 89.4884 1292.05 89.5235 1290.09 89.5605C1290.69 88.7746 1291.29 87.9899 1291.9 87.2128C1293.81 87.1331 1295.71 87.055 1297.63 86.9876ZM1299.9 83.665C1299.34 84.4623 1298.79 85.2565 1298.24 86.0614C1296.37 86.1258 1294.51 86.1994 1292.64 86.2745C1293.25 85.5096 1293.85 84.7417 1294.46 83.9859C1296.27 83.8719 1298.08 83.7686 1299.9 83.665ZM1302.21 80.3813C1301.65 81.1553 1301.1 81.9351 1300.55 82.7183C1298.79 82.8178 1297.02 82.9134 1295.25 83.022C1295.86 82.2804 1296.47 81.5433 1297.09 80.8092C1298.79 80.6633 1300.5 80.5185 1302.21 80.3813ZM1304.56 77.1612C1304 77.9028 1303.46 78.656 1302.92 79.4068C1301.24 79.5394 1299.57 79.6819 1297.91 79.8256C1298.51 79.1049 1299.14 78.3979 1299.76 77.6864C1301.35 77.5061 1302.95 77.33 1304.56 77.1612ZM1306.97 73.9976C1306.42 74.7152 1305.86 75.4359 1305.31 76.1619C1303.76 76.3243 1302.2 76.4866 1300.65 76.6589C1301.25 75.9717 1301.86 75.2872 1302.47 74.6065C1303.97 74.3988 1305.47 74.1973 1306.97 73.9976ZM1309.43 70.8903C1308.88 71.5782 1308.32 72.2596 1307.77 72.9559C1306.33 73.145 1304.89 73.3439 1303.45 73.5417C1304.04 72.8908 1304.63 72.233 1305.23 71.59C1306.63 71.3518 1308.03 71.1178 1309.43 70.8903ZM1311.91 67.8562C1311.37 68.503 1310.84 69.1551 1310.3 69.8079C1308.97 70.0202 1307.64 70.2325 1306.32 70.4547C1306.9 69.8377 1307.49 69.2233 1308.08 68.6146C1309.36 68.3593 1310.63 68.1051 1311.91 67.8562ZM1314.43 64.8953C1313.91 65.4902 1313.41 66.0989 1312.89 66.7014C1311.67 66.9347 1310.46 67.1797 1309.25 67.4229C1309.82 66.8417 1310.4 66.2707 1310.99 65.6956C1312.13 65.4235 1313.28 65.1587 1314.43 64.8953ZM1317.01 62.0023C1316.51 62.5572 1316.01 63.114 1315.51 63.6757C1314.44 63.9166 1313.36 64.1498 1312.3 64.3987C1312.84 63.8731 1313.39 63.3605 1313.94 62.8426C1314.96 62.5613 1315.98 62.2774 1317.01 62.0023ZM1319.6 59.2128C1319.14 59.7033 1318.66 60.1866 1318.2 60.6832C1317.28 60.9248 1316.36 61.1775 1315.44 61.429C1315.95 60.9591 1316.45 60.4885 1316.96 60.0231C1317.84 59.7457 1318.72 59.4834 1319.6 59.2128ZM1322.19 56.5138C1321.78 56.9284 1321.38 57.348 1320.97 57.7673C1320.22 57.9936 1319.48 58.2227 1318.73 58.4514C1319.16 58.071 1319.58 57.6842 1320.02 57.3076C1320.74 57.0443 1321.46 56.7726 1322.19 56.5138ZM1324.73 53.9926C1324.42 54.2914 1324.12 54.596 1323.81 54.897C1323.28 55.0807 1322.74 55.256 1322.21 55.4436C1322.55 55.1646 1322.87 54.8852 1323.21 54.6097C1323.71 54.4004 1324.22 54.1988 1324.73 53.9926ZM1327.24 51.5966L1326.73 52.0745C1326.46 52.1823 1326.19 52.2971 1325.91 52.4072L1326.46 51.9712C1326.72 51.8485 1326.98 51.7197 1327.24 51.5966ZM496.061 301.682C497.456 302.277 498.808 302.836 500.193 303.423L499.305 303.119L494.878 301.304L496.061 301.682ZM480.392 294.957C482.534 295.874 484.695 296.807 486.835 297.724C485.851 297.4 484.882 297.092 483.895 296.766C481.702 295.854 479.469 294.908 477.258 293.981C478.301 294.305 479.352 294.637 480.392 294.957ZM464.369 288.028C466.898 289.136 469.419 290.238 471.915 291.319C470.614 290.911 469.336 290.522 468.03 290.109C465.306 288.959 462.618 287.84 459.87 286.67C461.358 287.113 462.888 287.592 464.369 288.028ZM447.735 280.737C450.858 282.108 453.975 283.474 457.093 284.839C455.425 284.34 453.744 283.829 452.067 283.32C449.065 282.036 446.036 280.731 443.024 279.44C444.615 279.89 446.153 280.293 447.735 280.737ZM431.027 273.31C434.587 274.905 438.161 276.514 441.669 278.067C439.772 277.528 437.815 276.936 435.908 276.386C432.493 274.906 429.025 273.382 425.558 271.861C427.391 272.353 429.204 272.827 431.027 273.31ZM414.081 265.725C417.972 267.479 421.791 269.176 425.651 270.906C423.726 270.388 421.843 269.912 419.906 269.383C415.964 267.654 412.062 265.957 408.092 264.204C410.084 264.708 412.1 265.232 414.081 265.725ZM397.044 257.963C401.13 259.83 405.219 261.698 409.26 263.529C407.184 263.005 405.106 262.479 403.016 261.943C399.026 260.17 394.98 258.353 390.941 256.542C392.985 257.025 395.014 257.492 397.044 257.963ZM379.554 249.937C383.989 251.987 388.394 254.012 392.776 256.019C390.61 255.509 388.391 254.949 386.21 254.426C381.921 252.499 377.619 250.56 373.278 248.592C375.382 249.053 377.463 249.489 379.554 249.937ZM362.009 241.798C366.593 243.931 371.157 246.047 375.707 248.152C373.564 247.687 371.456 247.257 369.301 246.779C364.715 244.695 360.113 242.597 355.491 240.484C357.659 240.918 359.852 241.378 362.009 241.798ZM344.108 233.391C348.884 235.648 353.673 237.915 358.376 240.114C356.175 239.677 353.958 239.225 351.744 238.775C347.126 236.654 342.428 234.466 337.739 232.287C339.879 232.673 341.98 233.018 344.108 233.391ZM325.976 224.825C331.006 227.216 335.96 229.545 340.943 231.897C338.742 231.505 336.535 231.106 334.32 230.7C329.369 228.4 324.444 226.122 319.444 223.783C321.622 224.131 323.808 224.49 325.976 224.825ZM307.68 216.051C312.824 218.526 317.969 221.001 323.046 223.42C320.85 223.074 318.651 222.725 316.444 222.366C311.435 220.015 306.362 217.614 301.288 215.21C303.43 215.506 305.546 215.767 307.68 216.051ZM289.16 207.113C294.474 209.691 299.756 212.244 305.006 214.769C302.823 214.474 300.636 214.176 298.444 213.867C293.225 211.394 287.97 208.89 282.687 206.362C284.842 206.611 287.012 206.877 289.16 207.113ZM270.31 197.932C275.795 200.614 281.247 203.269 286.677 205.904C284.505 205.66 282.32 205.397 280.142 205.14C274.76 202.564 269.367 199.979 263.933 197.36C266.06 197.554 268.187 197.748 270.31 197.932ZM251.319 188.581C256.905 191.345 262.505 194.117 268.007 196.812C265.869 196.623 263.733 196.436 261.589 196.236C256.14 193.604 250.588 190.888 245.048 188.182C247.14 188.319 249.231 188.453 251.319 188.581ZM270.727 197.054C265.153 194.328 259.497 191.533 253.843 188.743C447.321 200.299 624.236 172.16 800.947 144.055C908.255 126.988 1015.49 109.937 1126.3 101.801C1031.05 111.926 939.083 129.314 846.583 146.806C666.142 180.927 483.651 215.422 270.727 197.054ZM289.568 206.234C284.094 203.58 278.569 200.884 273.028 198.176C485.107 216.095 667.029 181.689 846.925 147.671C944.459 129.228 1041.4 110.905 1142.22 101.098C1054.65 112.7 970.637 131.392 885.825 150.27C704.878 190.548 520.273 231.645 289.568 206.234ZM447.998 279.824C444.255 278.171 440.491 276.504 436.698 274.813C800.553 369.679 951.197 269.154 1092.64 174.695C1133.43 147.46 1173.45 120.74 1217.62 99.3746M1301.03 93.8694C1300.55 94.7746 1300.08 95.687 1299.61 96.6013C1297.41 96.5384 1295.22 96.4842 1293.03 96.4313C1293.57 95.5555 1294.11 94.6827 1294.66 93.8161C1296.78 93.8286 1298.91 93.8462 1301.03 93.8694ZM1302.98 90.2953C1302.49 91.1863 1301.99 92.0736 1301.51 92.9726C1299.42 92.9486 1297.32 92.9292 1295.23 92.9158C1295.77 92.0591 1296.31 91.1997 1296.87 90.3521C1298.9 90.3262 1300.94 90.3117 1302.98 90.2953ZM1304.96 86.7638C1304.46 87.6362 1303.97 88.5071 1303.48 89.3882C1301.47 89.4023 1299.47 89.4134 1297.47 89.4366C1298.02 88.602 1298.57 87.7673 1299.13 86.9422C1301.07 86.879 1303.01 86.818 1304.96 86.7638ZM1306.98 83.2861C1306.48 84.1315 1305.99 84.9855 1305.49 85.8411C1303.58 85.8934 1301.66 85.9543 1299.75 86.0157C1300.31 85.1971 1300.88 84.3895 1301.45 83.5788C1303.29 83.4759 1305.13 83.3765 1306.98 83.2861ZM1309.05 79.8664C1308.54 80.6873 1308.05 81.5197 1307.55 82.3513C1305.73 82.4385 1303.91 82.5327 1302.1 82.6322C1302.67 81.8318 1303.24 81.0391 1303.82 80.2467C1305.56 80.113 1307.3 79.9918 1309.05 79.8664ZM1311.19 76.4843C1310.67 77.2904 1310.15 78.0949 1309.64 78.9098C1307.93 79.0306 1306.22 79.1491 1304.52 79.2787C1305.08 78.5138 1305.64 77.7477 1306.21 76.992C1307.87 76.8182 1309.52 76.6448 1311.19 76.4843ZM1313.35 73.1881C1312.83 73.9606 1312.31 74.7285 1311.81 75.5087C1310.19 75.6623 1308.59 75.8269 1306.98 75.9919C1307.54 75.248 1308.11 74.501 1308.68 73.7658C1310.23 73.5661 1311.79 73.3779 1313.35 73.1881ZM1315.57 69.9219C1315.05 70.6673 1314.54 71.4204 1314.03 72.1746C1312.52 72.3568 1311.01 72.5348 1309.51 72.7261C1310.07 72.0153 1310.64 71.3106 1311.21 70.6086C1312.66 70.3761 1314.11 70.1406 1315.57 69.9219ZM1317.81 66.7544C1317.31 67.4541 1316.81 68.1683 1316.31 68.8757C1314.9 69.0849 1313.49 69.3049 1312.08 69.5274C1312.65 68.8372 1313.24 68.1618 1313.82 67.48C1315.14 67.2296 1316.48 66.9957 1317.81 66.7544ZM1320.15 63.6212C1319.64 64.2958 1319.13 64.9696 1318.63 65.6514C1317.34 65.8805 1316.06 66.1122 1314.78 66.3485C1315.33 65.709 1315.88 65.0741 1316.44 64.4418C1317.67 64.1655 1318.91 63.888 1320.15 63.6212ZM1322.5 60.591C1322 61.2183 1321.5 61.8395 1321.01 62.474C1319.85 62.7191 1318.69 62.9672 1317.54 63.2214C1318.07 62.628 1318.6 62.0274 1319.14 61.4405C1320.25 61.152 1321.38 60.8715 1322.5 60.591ZM1324.88 57.6278C1324.41 58.196 1323.95 58.7715 1323.49 59.3462C1322.45 59.6012 1321.41 59.8687 1320.38 60.1321C1320.89 59.5871 1321.41 59.0402 1321.92 58.5009C1322.91 58.2048 1323.89 57.9151 1324.88 57.6278ZM1327.3 54.7633C1326.86 55.2675 1326.43 55.7835 1326.01 56.2931C1325.12 56.5454 1324.23 56.7893 1323.35 57.0481C1323.82 56.5683 1324.3 56.0968 1324.78 55.6227C1325.62 55.3357 1326.45 55.0449 1327.3 54.7633ZM1329.74 52.0128C1329.36 52.4324 1328.98 52.8524 1328.6 53.2769C1327.86 53.5186 1327.13 53.7686 1326.39 54.0186C1326.83 53.5982 1327.28 53.1927 1327.72 52.7773C1328.38 52.5154 1329.07 52.2696 1329.74 52.0128ZM1332.16 49.383C1331.85 49.7116 1331.53 50.0317 1331.22 50.3629C1330.7 50.5577 1330.18 50.757 1329.66 50.9521C1329.99 50.6552 1330.32 50.3602 1330.64 50.0637C1331.15 49.8396 1331.65 49.6052 1332.16 49.383ZM1334.41 47.0201C1334.26 47.1714 1334.12 47.3284 1333.97 47.4797C1333.72 47.5872 1333.47 47.6905 1333.21 47.798C1333.37 47.6608 1333.53 47.5182 1333.69 47.3814L1334.41 47.0201ZM225.843 178.798C227.907 178.879 229.972 178.967 232.034 179.04C237.816 181.92 243.491 184.712 249.204 187.535C247.104 187.404 245.005 187.277 242.9 187.134C237.223 184.364 231.582 181.62 225.843 178.798ZM217.284 178.446C219.339 178.537 221.391 178.621 223.444 178.704C229.114 181.495 234.702 184.218 240.315 186.962C238.194 186.815 236.067 186.649 233.942 186.494C228.409 183.827 222.875 181.16 217.284 178.446ZM208.65 178.035C210.705 178.139 212.757 178.233 214.81 178.327C220.328 181.008 225.815 183.664 231.275 186.297C229.162 186.138 227.051 185.979 224.934 185.81C219.548 183.253 214.098 180.644 208.65 178.035ZM199.933 177.568C202.003 177.684 204.074 177.808 206.141 177.915C211.49 180.478 216.87 183.067 222.159 185.579C220.046 185.406 217.933 185.232 215.815 185.049C210.577 182.602 205.233 180.068 199.933 177.568ZM191.155 177.059C193.217 177.186 195.276 177.305 197.336 177.423C202.585 179.9 207.851 182.393 213.037 184.816C210.928 184.63 208.809 184.421 206.697 184.226C201.545 181.862 196.372 179.479 191.155 177.059ZM182.388 176.495C184.407 176.631 186.427 176.757 188.445 176.885C193.599 179.278 198.682 181.611 203.776 183.952C201.667 183.752 199.56 183.559 197.448 183.349C192.489 181.117 187.411 178.781 182.388 176.495ZM173.459 175.859C175.516 176.011 177.576 176.17 179.631 176.313C184.512 178.537 189.489 180.847 194.312 183.024C192.248 182.813 190.182 182.597 188.113 182.378C183.27 180.242 178.362 178.048 173.459 175.859ZM164.489 175.179C166.528 175.342 168.567 175.497 170.605 175.65C175.377 177.784 180.2 179.962 184.914 182.044C182.848 181.82 180.773 181.577 178.702 181.343C173.988 179.311 169.258 177.263 164.489 175.179ZM155.437 174.435C157.463 174.609 159.488 174.771 161.513 174.935C166.135 176.957 170.762 178.984 175.329 180.958C173.301 180.723 171.278 180.501 169.246 180.258C164.652 178.324 160.084 176.416 155.437 174.435ZM146.28 173.612C148.307 173.799 150.333 173.991 152.358 174.168C156.821 176.075 161.248 177.95 165.661 179.809C163.635 179.562 161.609 179.307 159.578 179.049C155.14 177.232 150.766 175.474 146.28 173.612ZM137.203 172.751C139.164 172.944 141.126 173.136 143.086 173.321C147.393 175.112 151.632 176.84 155.893 178.588C153.88 178.327 151.857 178.045 149.841 177.776C145.629 176.101 141.453 174.462 137.203 172.751ZM128.099 171.835C129.969 172.032 131.838 172.211 133.707 172.4C137.81 174.055 141.817 175.619 145.88 177.237C143.94 176.971 142.005 176.718 140.061 176.444C136.086 174.92 132.109 173.393 128.099 171.835ZM118.861 170.825C120.698 171.03 122.535 171.234 124.371 171.43C128.192 172.921 131.943 174.346 135.737 175.809C133.828 175.534 131.92 175.254 130.008 174.969C126.314 173.61 122.587 172.216 118.861 170.825ZM109.627 169.764C111.401 169.974 113.176 170.191 114.948 170.394C118.466 171.715 121.952 173.001 125.446 174.298C123.586 174.015 121.716 173.707 119.853 173.417C116.471 172.229 113.036 170.982 109.627 169.764ZM100.437 168.66C102.079 168.864 103.717 169.054 105.357 169.253C108.506 170.384 111.648 171.508 114.776 172.617C113.099 172.349 111.423 172.085 109.743 171.81C106.661 170.782 103.539 169.711 100.437 168.66ZM91.1403 167.456C92.653 167.655 94.1664 167.849 95.6787 168.043C98.3774 168.964 101.09 169.9 103.774 170.804C102.346 170.563 100.92 170.326 99.4899 170.081C96.7098 169.21 93.9359 168.345 91.1403 167.456ZM82.1575 166.239C83.41 166.413 84.6633 166.592 85.9156 166.762C88.0411 167.445 90.1901 168.155 92.3062 168.826C91.2319 168.637 90.1548 168.44 89.0797 168.247C86.7705 167.576 84.4757 166.922 82.1575 166.239ZM73.9597 165.093C74.6254 165.19 75.2905 165.279 75.9556 165.374C77.3256 165.783 78.7107 166.211 80.075 166.614C79.5715 166.52 79.0658 166.419 78.5614 166.325L73.9597 165.093ZM1290.36 100.867C1292.67 100.96 1294.98 101.057 1297.29 101.16C1282.51 130.935 1271.63 164.837 1260.56 199.392C1239.01 266.626 1216.67 336.314 1163.1 382.567C1084.56 450.375 938.668 467.873 629.384 353.78C926.06 457.594 1067.26 435.185 1146.32 366.396C1197.24 322.099 1222.34 258.603 1246.6 197.198C1260.03 163.236 1273.2 129.92 1290.36 100.867ZM1282.1 100.54C1284.39 100.624 1286.67 100.72 1288.96 100.812C1271.89 129.845 1258.74 163.082 1245.35 196.963C1221.12 258.276 1196.06 321.68 1145.31 365.836C1063.95 436.617 916.345 457.975 599.878 342.234C904.651 447.821 1047.76 421.006 1129.98 348.881C1177.65 307.072 1204.8 250.066 1231.12 194.798C1246.98 161.504 1262.54 128.845 1282.1 100.54ZM1273.9 100.272C1276.15 100.341 1278.4 100.413 1280.66 100.492C1261.2 128.765 1245.69 161.327 1229.88 194.516C1203.6 249.712 1176.48 306.641 1128.96 348.325C1044.35 422.547 894.822 448.494 569.572 330.502C884.353 438.523 1029.6 406.349 1115.52 330.305C1159.4 291.472 1187.76 241.229 1215.34 192.377C1233.75 159.773 1251.81 127.8 1273.9 100.272ZM1265.73 100.033C1267.95 100.093 1270.18 100.155 1272.42 100.223C1250.46 127.711 1232.46 159.57 1214.13 192.051C1186.58 240.845 1158.25 291.029 1114.5 329.753C1026.53 407.603 876.072 439.265 543.687 320.482L542.198 319.871C866.882 429.614 1013.61 390.647 1103.61 310.225C1142.97 275.052 1171.45 231.966 1199.23 189.936C1220.31 158.042 1240.99 126.764 1265.73 100.033ZM1257.61 99.8255C1259.8 99.8766 1262 99.9372 1264.19 99.9943C1239.63 126.675 1219.03 157.814 1198.05 189.562C1170.3 231.544 1141.85 274.582 1102.58 309.677C1011.55 391.021 862.144 429.734 527.826 313.973C526.356 313.365 524.928 312.791 523.448 312.176C854.874 420.739 1001.22 372.883 1095.4 287.829C1129.19 257.312 1156.25 222.026 1182.75 187.471C1206.65 156.303 1230.09 125.735 1257.61 99.8255ZM1249.53 99.6727C1251.69 99.7104 1253.84 99.747 1256 99.7931C1228.69 125.643 1205.37 156.052 1181.6 187.052C1155.12 221.575 1128.09 256.828 1094.37 287.284C999.45 373.006 851.311 420.804 512.653 307.648C510.485 306.74 508.3 305.817 506.131 304.909C939.06 441.61 1056.7 308.53 1165.84 184.984C1192.72 154.564 1219.08 124.734 1249.53 99.6727ZM1241.48 99.5446C1243.6 99.5732 1245.72 99.6056 1247.84 99.6407C1217.64 124.634 1191.44 154.285 1164.73 184.516C1055.02 308.708 936.667 442.529 496.145 300.706C493.789 299.705 491.38 298.662 488.992 297.634C904.414 423.547 1030.81 298.66 1148.46 182.464C1178.48 152.812 1207.93 123.73 1241.48 99.5446ZM1233.5 99.4516C1235.57 99.4726 1237.63 99.4977 1239.69 99.5237C1206.45 123.632 1177.2 152.51 1147.39 181.951C1029.23 298.66 902.125 424.082 480.552 294.008C477.444 292.671 474.381 291.368 471.252 290.014C869.62 405.532 1004.6 288.842 1130.52 179.913C1163.9 151.043 1196.64 122.731 1233.5 99.4516ZM1225.53 99.4009C1227.54 99.4089 1229.55 99.4158 1231.56 99.4318C1195.08 122.629 1162.6 150.72 1129.51 179.353C1003.14 288.661 867.683 405.836 464.601 287.106C461.103 285.582 457.563 284.022 454.033 282.471C835.045 387.528 978.101 278.989 1111.95 177.327C1148.9 149.266 1185.15 121.741 1225.53 99.4009ZM1209.74 99.3865C1211.6 99.3823 1213.45 99.3788 1215.31 99.3773C1171.7 120.651 1132.09 147.101 1091.74 174.047C949.858 268.799 798.677 369.642 431.334 272.412C427.334 270.626 423.329 268.836 419.306 267.032C766.128 351.951 923.826 259.336 1072.47 172.016C1117.39 145.63 1161.49 119.735 1209.74 99.3865ZM1201.89 99.4318C1203.66 99.4162 1205.44 99.3986 1207.21 99.391C1159.63 119.652 1116.03 145.25 1071.63 171.33C922.536 258.915 764.301 351.821 414.425 264.841C410.198 262.931 405.89 260.957 401.596 258.993C731.61 334.304 895.87 249.545 1051.29 169.282C1100.69 143.767 1149.21 118.718 1201.89 99.4318ZM1194.09 99.497C1195.73 99.4783 1197.37 99.4696 1199.01 99.4551C1147.14 118.657 1099.25 143.384 1050.51 168.559C894.659 249.046 729.933 334.086 397.392 257.076C392.86 255.006 388.343 252.948 383.765 250.839C697.108 316.852 867.208 239.778 1028.88 166.483C1083.19 141.86 1136.55 117.671 1194.09 99.497ZM1186.31 99.6087C1187.81 99.5877 1189.31 99.5629 1190.82 99.5431C1134.26 117.641 1081.67 141.473 1028.17 165.73C866.052 239.225 695.444 316.52 379.922 249.056C375.278 246.911 370.591 244.731 365.896 242.546C662.578 299.541 837.712 230.022 1005 163.608C1064.71 139.906 1123.42 116.607 1186.31 99.6087ZM1178.56 99.7417C1179.88 99.715 1181.2 99.686 1182.52 99.6631C1120.82 116.601 1063.07 139.523 1004.35 162.832C836.607 229.426 660.97 299.157 362.403 240.925C357.53 238.652 352.604 236.336 347.664 234.007C627.81 282.381 807.13 220.299 979.322 160.651C1045.03 137.89 1109.71 115.494 1178.56 99.7417ZM1170.86 99.8983C1171.91 99.8739 1172.97 99.8564 1174.03 99.8331C1106.65 115.548 1043.19 137.523 978.741 159.848C806.081 219.659 626.249 281.919 344.501 232.514C339.457 230.137 334.427 227.77 329.338 225.357C592.881 265.469 775.222 210.601 951.404 157.597C1023.86 135.8 1095.27 114.319 1170.86 99.8983ZM1163.12 100.095L1165.31 100.037C1091.58 114.455 1021.73 135.462 950.885 156.774C774.211 209.926 591.317 264.932 326.385 223.954C321.235 221.502 315.988 218.971 310.758 216.456C557.544 248.708 741.615 200.928 920.65 154.427C1000.75 133.621 1079.85 113.077 1163.12 100.095ZM1155.5 100.307L1156.09 100.287C1075.23 113.324 998.184 133.329 920.191 153.585C740.652 200.217 556.045 248.134 308.085 215.173C302.738 212.604 297.382 210.025 291.976 207.407C521.699 232.246 705.786 191.288 886.223 151.124C975.187 131.323 1063.27 111.717 1155.5 100.307ZM745.427 140.275C865.259 124.41 985.967 108.432 1110.03 102.153C1004.87 110.704 902.794 126.934 800.657 143.18C623.389 171.372 445.91 199.588 251.729 187.697C245.959 184.849 240.221 182.027 234.374 179.117C407.683 184.986 575.677 162.75 745.427 140.275ZM1178.32 98.8441L1176.26 98.8861L1177 98.7469C1177.74 98.7126 1178.47 98.6745 1179.21 98.6418L1178.32 98.8441ZM1186.03 98.7103C1184.99 98.7271 1183.95 98.7378 1182.91 98.7557C1183.4 98.644 1183.9 98.5278 1184.39 98.4177L1187.61 98.285L1186.03 98.7103ZM1193.77 98.5998C1192.45 98.6151 1191.14 98.6376 1189.83 98.6559C1190.53 98.4687 1191.23 98.2889 1191.94 98.1055C1193.22 98.0556 1194.5 98.016 1195.79 97.9695C1195.11 98.1795 1194.44 98.3872 1193.77 98.5998ZM1201.53 98.5335L1197.07 98.5682L1199.41 97.8433C1200.89 97.7915 1202.37 97.7362 1203.85 97.6901C1203.08 97.971 1202.3 98.2503 1201.53 98.5335ZM1209.34 98.4859C1207.7 98.4912 1206.06 98.4992 1204.42 98.5099C1205.26 98.208 1206.09 97.902 1206.93 97.6043C1208.54 97.5586 1210.15 97.511 1211.77 97.4683C1210.96 97.8048 1210.15 98.1459 1209.34 98.4859ZM1217.19 98.4733C1215.42 98.4729 1213.65 98.4782 1211.89 98.4813C1212.77 98.1143 1213.65 97.7542 1214.54 97.3906C1216.25 97.3486 1217.97 97.3143 1219.68 97.277C1218.85 97.6756 1218.02 98.0724 1217.19 98.4733ZM1225.05 98.4969C1223.2 98.4889 1221.35 98.4729 1219.51 98.4687C1220.37 98.0556 1221.23 97.6345 1222.1 97.2248C1223.93 97.1847 1225.75 97.1447 1227.58 97.1142C1226.73 97.572 1225.89 98.0335 1225.05 98.4969ZM1232.98 98.5423C1231.03 98.5255 1229.09 98.5163 1227.15 98.508C1228.02 98.0281 1228.9 97.5575 1229.78 97.083C1231.67 97.0544 1233.55 97.027 1235.43 97.0037C1234.61 97.5144 1233.8 98.0282 1232.98 98.5423ZM1240.91 98.636C1238.91 98.6109 1236.91 98.5865 1234.91 98.5655C1235.76 98.0335 1236.61 97.5007 1237.46 96.9751C1239.41 96.9542 1241.37 96.9424 1243.32 96.9267C1242.51 97.4942 1241.71 98.0617 1240.91 98.636ZM1248.91 98.7588C1246.85 98.7222 1244.78 98.6871 1242.72 98.657C1243.54 98.0716 1244.36 97.4935 1245.19 96.9142C1247.19 96.8989 1249.2 96.884 1251.2 96.8791C1250.44 97.5007 1249.67 98.1311 1248.91 98.7588ZM1256.94 98.9093C1254.82 98.8628 1252.72 98.8274 1250.6 98.7908C1251.39 98.1513 1252.17 97.5133 1252.96 96.8798C1255.02 96.8787 1257.07 96.8776 1259.12 96.8833C1258.39 97.5575 1257.66 98.2305 1256.94 98.9093ZM1265 99.1124C1262.85 99.0556 1260.7 98.9989 1258.55 98.9478C1259.29 98.258 1260.03 97.5685 1260.77 96.8833C1262.87 96.8924 1264.96 96.9092 1267.06 96.9241C1266.37 97.6505 1265.68 98.3784 1265 99.1124ZM1273.12 99.3434C1270.93 99.2752 1268.73 99.2111 1266.54 99.1525C1267.23 98.407 1267.93 97.6722 1268.63 96.9374C1270.76 96.953 1272.89 96.9702 1275.02 96.9968C1274.38 97.7739 1273.75 98.5609 1273.12 99.3434ZM1281.28 99.6106C1279.05 99.5321 1276.83 99.4615 1274.6 99.3922C1275.25 98.5983 1275.89 97.806 1276.54 97.0201C1278.7 97.0502 1280.86 97.083 1283.03 97.1219C1282.44 97.9489 1281.86 98.7763 1281.28 99.6106ZM1289.48 99.9292C1287.23 99.8381 1284.97 99.7424 1282.72 99.6582C1283.31 98.8171 1283.9 97.9786 1284.49 97.144C1286.68 97.1859 1288.87 97.2393 1291.07 97.2899C1290.53 98.1654 1290 99.0438 1289.48 99.9292ZM1297.74 100.278C1295.45 100.175 1293.16 100.078 1290.87 99.9852C1291.4 99.09 1291.95 98.2073 1292.49 97.322C1294.7 97.3738 1296.92 97.4279 1299.14 97.4908C1298.67 98.415 1298.2 99.3457 1297.74 100.278ZM1543.3 130.467C1459.73 113.245 1378.53 103.99 1299.11 100.343C1299.58 99.4029 1300.05 98.4661 1300.53 97.5342C1378.47 99.8168 1458.89 108.241 1542.92 125.56L1543.3 124.698C1459.29 107.385 1378.9 98.947 1301 96.6458C1301.48 95.7228 1301.95 94.8001 1302.44 93.8873C1378.82 94.7948 1458.42 102.375 1542.92 119.788L1543.3 118.926C1458.84 101.52 1379.27 93.9254 1302.93 92.9909C1303.42 92.0842 1303.91 91.1825 1304.41 90.2854C1379.21 89.7937 1457.96 96.5098 1542.92 114.019L1543.3 113.157C1458.38 95.6576 1379.67 88.9183 1304.91 89.3768C1305.41 88.4838 1305.92 87.6031 1306.43 86.7189C1379.61 84.7995 1457.5 90.6448 1542.92 108.251L1543.3 107.388C1457.93 89.796 1380.09 83.9215 1306.96 85.7958C1307.46 84.9318 1307.97 84.0743 1308.48 83.2187C1380.01 79.8401 1457.01 84.7759 1542.92 102.48L1543.3 101.619C1457.46 83.9295 1380.52 78.9616 1309.04 82.2826C1309.56 81.4377 1310.06 80.5917 1310.58 79.7559C1380.43 74.8909 1456.52 78.9033 1542.92 96.7091L1543.3 95.8474C1457 78.0625 1380.98 74.0044 1311.19 78.7977C1311.71 77.9764 1312.22 77.1551 1312.75 76.3437C1380.88 69.9646 1456.03 73.0329 1542.92 90.9401L1543.3 90.0781C1456.52 72.1953 1381.45 69.0731 1313.38 75.3673C1313.91 74.5669 1314.44 73.7799 1314.98 72.9887C1381.35 65.0626 1455.53 67.1614 1542.92 85.1719L1543.3 84.3098C1456.05 66.3302 1381.96 64.1605 1315.66 71.9769C1316.18 71.204 1316.72 70.4425 1317.26 69.6798C1381.84 60.1763 1455.03 61.2857 1542.92 79.3999L1543.3 78.5382C1455.59 60.4625 1382.5 59.2681 1318 68.6345C1318.52 67.8974 1319.05 67.1599 1319.59 66.432C1382.33 55.3182 1454.51 55.4097 1542.92 73.6313L1543.3 72.7688C1455.12 54.5987 1383.07 54.3871 1320.41 65.3267C1320.93 64.6319 1321.45 63.9314 1321.97 63.2443C1382.85 50.4829 1453.98 49.5313 1542.92 67.8619L1543.3 66.9998C1454.65 48.7309 1383.66 49.5435 1322.88 62.0872C1323.4 61.4183 1323.93 60.7533 1324.46 60.0924C1383.42 45.6629 1453.46 43.656 1542.92 62.0914L1543.3 61.2312C1454.19 42.8682 1384.3 44.7025 1325.44 58.8691C1325.95 58.2478 1326.47 57.6422 1326.99 57.0286C1383.99 40.883 1452.92 37.7731 1542.92 56.3213L1543.3 55.4596C1453.76 37.0074 1385 39.8898 1328.11 55.6951C1328.6 55.1269 1329.1 54.5643 1329.59 54.0033C1384.59 36.1144 1452.38 31.8928 1542.92 50.5527L1543.3 49.6902C1453.34 31.153 1385.77 35.0965 1330.89 52.5517C1331.34 52.0581 1331.78 51.5558 1332.23 51.0661C1385.18 31.3828 1451.81 26.0076 1542.92 44.7833L1543.3 43.9213C1452.99 25.3097 1386.64 30.2993 1333.82 49.4017C1334.2 48.9939 1334.59 48.583 1334.98 48.1806C1385.84 26.6768 1451.26 20.1208 1542.92 39.0121L1543.3 38.15C1452.69 19.4775 1387.62 25.5174 1336.9 46.2499C1337.22 45.9393 1337.53 45.6298 1337.85 45.3215C1386.56 21.9833 1450.73 14.2424 1542.92 33.2427L1543.3 32.3806C1452.5 13.6696 1388.78 20.7405 1340.21 43.0569C1340.38 42.8998 1340.55 42.7451 1340.72 42.5896C1387.25 17.3387 1450.14 8.35152 1542.92 27.4737L1543.3 26.6116C1453.19 8.0424 1391.14 15.8077 1344.88 39.1858C1389.09 12.5404 1450.39 2.63437 1542.92 21.7036L1543.3 20.8426C1455.09 2.66408 1395.11 10.6211 1351.26 34.2626C1393.04 7.34118 1452.28 -2.74587 1542.92 15.9331L1543.3 15.0714C1457.05 -2.70089 1399.09 5.38336 1357.51 29.1617C1397.01 2.09507 1454.25 -8.11128 1542.92 10.1641L1543.3 9.30201C1445.46 -10.8603 1385.66 3.34744 1345.73 36.5771C1343.44 38.1702 1341.22 39.8288 1339.04 41.5228C1336.66 43.069 1334.32 44.6526 1332.03 46.2975C1329.59 47.7789 1327.2 49.3179 1324.84 50.8911C1322.24 52.3539 1319.67 53.8558 1317.16 55.4093C1314.5 56.7908 1311.89 58.2162 1309.32 59.6808C1306.48 61.0433 1303.68 62.4516 1300.92 63.8987C1298.04 65.1743 1295.18 66.4815 1292.36 67.8322C1289.28 69.0754 1286.25 70.3682 1283.24 71.6876C1280.01 72.8748 1276.82 74.0947 1273.66 75.3536C1270.41 76.4401 1267.18 77.5572 1263.99 78.7082C1260.52 79.7505 1257.09 80.8356 1253.67 81.9416C1250.01 82.9264 1246.38 83.9428 1242.77 84.9897C1238.99 85.8926 1235.23 86.8187 1231.49 87.7787C1227.61 88.5924 1223.76 89.426 1219.92 90.2911C1215.87 91.027 1211.84 91.7832 1207.83 92.5691C1203.62 93.2211 1199.43 93.8945 1195.25 94.5912C1190.87 95.1579 1186.49 95.7422 1182.13 96.3532C1177.72 96.8143 1173.32 97.2995 1168.93 97.7983C1164.18 98.1833 1159.45 98.5914 1154.72 99.0153C1149.88 99.2992 1145.06 99.6022 1140.24 99.9223C1005.43 104.942 874.794 122.232 745.182 139.391C574.871 161.941 406.329 184.254 232.443 178.15C135.809 130.004 29.5646 74.0467 -87.3563 9.38208L-88.1661 10.081C28.1172 74.3935 133.838 130.082 230.077 178.057C228.005 177.982 225.932 177.899 223.859 177.815C129.724 131.47 26.3503 77.5587 -87.3563 15.1495L-88.1661 15.8523C24.8885 77.9044 127.73 131.547 221.46 177.721C219.385 177.634 217.307 177.536 215.229 177.442C123.601 132.909 23.1106 81.0543 -87.3589 20.9189L-88.163 21.6247C21.6206 81.3882 121.556 132.97 212.754 177.325C210.689 177.226 208.624 177.138 206.558 177.03C117.447 134.323 19.8463 84.5313 -87.3622 26.6875L-88.1611 27.3937C18.3282 84.8491 115.351 134.364 204.005 176.889C201.921 176.779 199.837 176.659 197.751 176.54C111.197 135.678 16.516 87.964 -87.3647 32.4557L-88.1591 33.1657C14.9817 88.2788 109.074 135.718 195.153 176.395C193.059 176.27 190.964 176.136 188.868 176.005C104.898 137.007 13.1361 91.3632 -87.3674 38.2224L-88.1561 38.9358C11.5579 91.6593 102.7 137.026 186.158 175.83C184.13 175.698 182.104 175.575 180.074 175.435C98.6244 138.288 9.83728 94.799 -87.37 43.9914L-88.1537 44.7094C8.23755 95.0905 96.3552 138.276 177.268 175.229C175.195 175.082 173.121 174.93 171.046 174.774C92.2036 139.517 6.40088 98.1543 -87.3716 49.7581L-88.1515 50.4795C4.79065 98.4474 89.903 139.502 168.191 174.565C166.113 174.405 164.033 174.23 161.953 174.061C85.7329 140.708 2.9314 101.486 -87.3774 55.5255L-88.1465 56.2504C1.2843 101.764 83.3491 140.662 158.977 173.817C156.92 173.644 154.862 173.477 152.802 173.297C79.2145 141.861 -0.567749 104.793 -87.3807 61.2949L-88.144 62.0232C-2.26062 105.056 76.7299 141.782 149.68 173.012C147.627 172.828 145.574 172.643 143.52 172.45C72.5968 142.95 -4.12463 108.063 -87.3853 67.062L-88.1382 67.7945C-5.8385 108.322 70.0582 142.859 140.312 172.151C138.254 171.953 136.192 171.737 134.134 171.53C65.8989 143.985 -7.72949 111.3 -87.3911 72.8309L-88.1331 73.5661C-9.49438 111.541 63.2457 143.858 130.756 171.19C128.773 170.985 126.79 170.777 124.806 170.564C59.2211 144.972 -11.2964 114.542 -87.3945 78.5954L-88.1287 79.3381C-13.2085 114.727 56.3328 144.8 121.067 170.153C119.171 169.944 117.275 169.743 115.376 169.526C52.4635 145.908 -14.9171 117.748 -87.4036 84.3636L-88.1215 85.1128C-16.9211 117.906 49.3837 145.685 111.35 169.054C109.493 168.837 107.635 168.612 105.776 168.387C45.5801 146.766 -18.6144 120.906 -87.4086 90.1303L-88.1156 90.8833C-20.689 121.047 42.3406 146.509 101.508 167.877C99.7076 167.653 97.9045 167.411 96.1034 167.18C38.6375 147.574 -22.3558 124.028 -87.4182 95.8947L-88.1049 96.6581C-24.5835 124.125 35.0679 147.23 91.3468 166.565C89.6746 166.345 88.0022 166.126 86.328 165.9C31.6154 148.329 -26.1475 127.115 -87.4287 101.662L-88.0961 102.433C-28.5881 127.149 27.603 147.867 80.9137 165.146C79.3983 164.933 77.8831 164.728 76.3657 164.511C24.4517 149.001 -30.0254 130.146 -87.4395 107.426L-88.0856 108.207C-32.7502 130.104 19.8448 148.396 70.0645 163.587C68.7698 163.396 67.474 163.203 66.177 163.007C17.1173 149.582 -33.999 133.125 -87.4531 113.191L-88.0698 113.982C-37.1791 132.96 11.5746 148.761 58.4735 161.828C57.7159 161.71 56.9562 161.585 56.1989 161.464C9.90515 150.127 -37.9031 136.109 -87.4724 118.954L-88.0515 119.756C-42.5687 135.497 1.42847 148.593 44.1388 159.413C1.26013 150.259 -42.5615 138.827 -87.4946 124.717L-88.0291 125.537C-49.5063 137.633 -11.8007 147.761 25.1949 156.184C-12.006 149.401 -49.5555 140.921 -87.5222 130.48L-88.0007 131.312C-42.8655 143.727 1.68054 153.383 45.7463 160.7C52.9408 162.227 60.1144 163.7 67.2576 165.1C74.8823 166.903 82.4506 168.607 89.9957 170.271C97.8126 172.275 105.587 174.217 113.299 176.069C121.491 178.322 129.63 180.508 137.686 182.585C145.955 184.976 154.127 187.255 162.253 189.477C170.52 191.971 178.719 194.387 186.84 196.717C195.537 199.449 204.158 202.1 212.677 204.643C221.707 207.571 230.611 210.369 239.438 213.091C248.012 215.941 256.496 218.703 264.884 221.371C273.446 224.289 281.926 227.128 290.3 229.866C300.486 233.429 310.487 236.819 320.384 240.116C329.247 243.255 338.004 246.302 346.65 249.245C355.408 252.403 364.062 255.467 372.612 258.44C382.778 262.169 392.82 265.787 402.702 269.269C412.166 272.784 421.502 276.192 430.701 279.481C440.263 283.077 449.704 286.571 458.993 289.934C468.748 293.646 478.385 297.257 487.854 300.727C497.354 304.371 506.744 307.926 515.975 311.35C525.31 314.967 534.529 318.488 543.604 321.891C552.969 325.558 562.184 329.103 571.282 332.553C921.169 470.869 1080.51 455.305 1164.11 383.126C1217.87 336.707 1240.24 266.918 1261.82 199.587C1272.92 164.968 1283.82 131.008 1298.66 101.225C1378.12 104.857 1459.34 114.103 1542.92 131.329L1543.3 130.467Z" fill="url(#paint0_linear_1_290)"/>
<defs>
<linearGradient id="paint0_linear_1_290" x1="462.662" y1="804.371" x2="978.668" y2="-242.526" gradientUnits="userSpaceOnUse">
<stop stop-color="#0A767B"/>
<stop offset="1" stop-color="#00A7D6"/>
</linearGradient>
</defs>
</svg>
